<svg width="241" height="216" viewBox="0 0 241 216" fill="none" xmlns="http://www.w3.org/2000/svg">
<path d="M56.1333 2.16104C51.2733 4.18104 57.8833 5.79104 60.1333 7.16104C59.1433 7.21104 58.1233 7.09104 57.1333 7.16104C56.4933 7.21104 55.5933 7.01104 55.1333 7.16104L49.6133 9.17103C46.6233 3.65103 48.1933 10.581 48.1333 12.161C47.9133 18.841 46.9733 21.331 54.1333 25.161C48.8633 25.671 51.4833 25.011 47.1333 23.171C48.1833 27.701 52.2233 27.241 56.1233 27.171L49.1333 29.151C57.8133 29.461 61.0433 29.551 60.6133 39.181L63.1333 38.161C68.0333 45.581 74.0133 41.271 79.1333 38.161C89.5633 31.821 79.5833 40.551 85.1333 38.161C85.7433 44.061 86.2033 46.131 84.8433 52.371C83.9033 56.681 79.0333 64.851 79.1533 67.581C79.2833 70.531 86.0733 80.261 88.1333 83.161C88.4333 83.591 88.4833 84.411 89.1333 85.161C89.3233 85.381 88.5533 87.021 89.7533 87.231C91.8133 87.861 93.3333 86.251 94.1333 86.161C95.4233 86.021 96.8633 86.351 98.1333 86.161V87.161C96.7833 93.821 95.4333 100.491 94.1333 107.161C93.9933 107.891 92.5633 108.631 94.1333 110.161C90.4833 110.881 86.7533 111.431 83.1333 112.161C79.6833 112.221 78.5733 113.061 79.1333 109.161C79.6233 107.781 82.6933 90.381 81.6233 90.151C65.8033 90.451 68.8533 98.741 66.1333 111.161C65.8533 112.451 64.4133 114.521 64.1333 116.161C63.1233 121.971 69.8733 120.861 74.1333 121.161V128.161C73.9533 128.161 71.4233 129.851 71.1333 130.161C69.8833 131.491 68.9833 133.451 70.1333 135.161C70.9133 136.321 71.0933 135.921 72.1333 136.161C72.3933 136.221 72.8733 136.201 73.1333 136.161C74.3933 135.951 74.2533 136.001 75.1333 135.161C75.2933 135.011 74.9933 134.451 75.1333 134.161C75.4933 133.421 76.6233 133.251 75.1333 132.161V131.161C79.4933 132.531 75.8433 134.881 79.1333 133.161C79.2233 133.441 79.0733 133.821 79.1333 134.161C79.1833 134.471 79.1333 134.841 79.1333 135.161C79.1333 135.481 79.1933 135.851 79.1333 136.161C77.1333 134.821 76.7433 135.061 78.1333 137.151L68.1333 138.161C68.0033 138.201 67.5033 139.671 67.1333 140.161C67.0133 140.321 67.2033 140.801 67.1333 141.161C67.1133 141.271 65.5733 141.411 66.1433 143.151C69.3833 142.521 75.7933 144.041 78.4433 143.191C79.9133 142.721 80.4433 138.491 81.1333 137.161C83.2033 133.191 84.7833 127.471 87.1333 124.161C87.2533 123.981 88.6333 124.461 89.0333 124.081C89.8533 123.311 85.2233 122.121 95.1333 122.161C98.3933 122.171 100.923 123.031 103.133 123.161L95.1333 143.151C98.1833 142.601 106.333 144.221 108.243 142.531C109.023 141.841 115.523 125.321 116.133 123.151C116.223 122.841 116.073 122.471 116.133 122.151C120.823 122.631 126.633 121.481 131.133 122.151V123.151L123.143 143.141C126.533 142.621 131.613 143.861 134.673 143.221C137.333 142.671 142.373 126.691 144.143 123.141C149.863 122.821 155.283 122.081 161.143 122.141V123.141L153.143 143.131C156.483 142.591 161.693 143.871 164.673 143.211C167.183 142.651 172.103 126.571 174.143 123.141C176.263 124.121 174.883 150.971 174.693 155.201C175.473 157.441 188.603 156.361 189.143 155.141C189.723 153.831 188.443 149.511 189.283 148.271L240.673 132.101L240.143 210.141L188.733 193.251C187.163 191.961 188.733 186.741 188.143 186.131C187.723 185.701 176.843 186.011 176.073 186.571C174.503 187.731 175.063 196.661 175.133 199.131C173.203 203.071 174.693 206.551 173.133 211.131C173.023 211.451 173.263 211.911 173.133 212.131L170.133 214.131C146.073 215.561 121.693 215.631 97.5833 215.181C82.6933 214.901 59.1833 215.911 45.6433 214.121C26.5833 211.611 39.8333 181.001 35.2033 177.561C29.2333 174.811 29.9033 180.281 28.4133 181.151C27.4633 181.711 8.47334 187.861 7.37334 187.941C5.61334 188.071 5.42334 188.371 4.49334 186.611C3.62334 184.981 6.47334 154.991 5.14334 150.131C11.8333 153.411 22.2433 154.991 28.4933 158.281C29.1133 158.611 32.4133 165.721 36.1433 162.131C36.9333 161.371 36.1233 143.261 36.1433 140.131C39.6233 140.381 36.9433 139.901 37.6533 138.121C39.2133 137.871 39.5033 139.191 40.1433 140.131C40.4233 140.541 39.8033 142.821 40.1433 143.111C42.2933 144.851 51.3733 143.111 54.1333 140.131C55.2433 138.931 54.8933 136.591 57.1233 135.141C54.8233 135.391 51.9333 133.211 51.1333 136.121L54.1233 137.121H47.1333C47.2933 135.161 49.1233 137.261 49.1233 134.131C49.1233 133.301 48.4433 131.091 48.1233 130.131C47.6133 128.611 43.9333 130.041 48.1233 127.141C43.2633 126.411 46.1233 132.261 42.6133 126.131L42.1133 130.121L37.1333 128.121C37.2133 125.331 43.6633 123.661 44.6433 122.111C45.5533 120.651 44.8333 119.001 45.1233 118.121C50.0233 120.311 45.0333 114.771 52.1133 119.111C51.3733 114.961 46.3433 114.481 45.1233 118.121C42.7033 117.041 41.5233 117.561 42.1333 114.131L44.1133 116.121L42.1333 111.131L47.1133 113.141L45.1233 115.111C47.6833 115.481 53.2633 114.061 51.6233 111.131C46.1433 116.121 49.3933 111.561 49.1133 110.121C53.9433 109.211 53.8033 111.201 55.1133 106.121C55.6533 104.031 55.9033 100.421 56.1133 98.121C56.1733 97.431 58.3833 96.781 56.1133 95.121C55.9533 95.001 55.4733 95.181 55.1133 95.121C54.8633 95.081 54.3433 95.051 54.1133 95.121V94.121C54.4333 94.061 54.7933 94.191 55.1133 94.121C56.6633 93.801 57.6833 93.491 59.1133 93.121C60.7933 92.691 63.2533 92.971 65.1133 92.111C65.6533 90.121 63.6233 89.191 63.1133 88.121C58.7233 78.981 55.1933 85.591 45.6533 86.151C13.8933 87.981 -6.89666 58.921 2.11334 29.121L3.11334 27.121C3.22334 26.831 2.99334 26.401 3.11334 26.121L6.08334 24.631L5.11334 22.121C15.9333 3.13103 35.2433 -3.95897 56.1133 2.12103L56.1333 2.16104ZM53.6333 5.16104V6.16104L54.1333 5.66104L53.6333 5.16104ZM26.1333 9.16104C21.4733 13.351 23.8533 18.021 25.1233 22.151L23.1433 20.161V24.151C19.4133 19.531 11.5133 20.211 8.13334 25.151C7.04334 26.741 7.49334 26.941 7.13334 28.151C7.04334 28.441 7.19334 28.821 7.13334 29.151C6.88334 30.491 6.12334 34.201 6.60334 35.161C7.47334 36.871 9.02334 35.091 9.13334 35.161C16.3433 39.121 15.8233 39.521 23.1333 35.161C23.4133 34.991 25.4333 37.931 25.1333 31.161C25.1233 30.831 25.1733 30.481 25.1333 30.161L28.1333 22.161C34.0133 25.751 42.6733 20.751 42.1133 13.771C41.4233 5.16104 31.8033 4.06104 26.1333 9.16104ZM4.63334 27.161V28.161L5.13334 27.661L4.63334 27.161ZM4.12334 32.151C4.84334 31.081 3.64334 29.411 3.14334 30.161C2.42334 31.231 3.62334 32.901 4.12334 32.151ZM27.1233 33.151C27.8433 32.081 26.6433 30.411 26.1433 31.161C25.4233 32.231 26.6233 33.901 27.1233 33.151ZM27.6333 34.161V35.161L28.1333 34.661L27.6333 34.161ZM27.1433 38.161L26.1233 36.671L29.1133 36.171L27.1333 38.161H27.1433ZM41.8833 37.311C34.6533 38.421 36.0033 49.471 43.2733 48.651C51.1333 47.761 49.0533 36.211 41.8833 37.311ZM16.1333 61.161C17.7333 61.561 19.8133 63.211 20.1233 63.161C21.6633 62.901 18.0533 59.501 23.1333 63.161C12.9933 73.061 32.3633 85.921 37.3733 72.901C39.2333 68.061 37.2233 67.741 36.1333 64.161C35.5633 62.291 39.1733 60.141 33.1333 62.161C32.7433 61.991 32.3733 61.201 32.1333 61.161L26.1433 59.171L33.1333 58.171C26.1633 56.891 24.8133 62.061 23.1433 55.161C22.7533 53.551 23.3133 51.481 22.4833 49.341C17.8733 37.461 0.583344 46.231 6.94334 56.871C9.79334 61.641 12.0133 60.131 16.1433 61.171L16.1333 61.161ZM61.1333 60.161C61.5333 60.761 62.0433 62.081 62.1333 62.161C56.6333 68.031 59.1533 57.581 56.1333 63.161C53.2633 61.671 47.5933 63.141 45.4533 65.481C36.4633 75.291 57.1933 91.551 61.1333 69.161C61.2933 68.231 59.5933 63.271 62.6233 63.281C64.1633 63.281 64.8633 67.691 72.1333 65.161C79.8233 62.491 79.8833 49.941 73.1333 48.161C64.9633 43.541 56.1033 52.691 61.1333 60.161ZM35.6433 56.181C33.5333 57.621 34.1633 59.061 35.6433 57.161C36.0333 56.661 36.4033 56.621 35.6433 56.181ZM37.1233 60.151C37.4533 56.751 36.6433 58.891 34.1333 59.171L37.1233 60.151ZM68.1233 67.171C67.0533 66.451 65.3833 67.651 66.1333 68.151C67.2033 68.871 68.8733 67.671 68.1233 67.171ZM64.1233 70.171C63.0533 69.451 61.3833 70.651 62.1333 71.151C63.2033 71.871 64.8733 70.671 64.1233 70.171ZM73.1333 156.161C64.1533 156.201 55.1233 156.121 46.1433 156.171C45.8933 157.981 48.0533 156.911 49.1333 157.161C65.2233 160.781 99.0933 158.191 117.133 158.161C133.063 158.131 149.283 159.011 165.133 157.161C146.633 155.511 127.693 155.911 109.133 156.161H93.1333C86.4833 156.161 79.7833 156.131 73.1333 156.161ZM47.1333 168.161C45.7933 168.581 45.9933 168.981 46.1433 170.151C61.7933 170.191 77.4933 170.111 93.1333 170.151C107.453 170.191 121.813 170.101 136.133 170.151H165.133C159.003 168.301 151.553 169.161 145.133 169.151C121.903 167.441 98.4133 167.991 75.1333 168.151C73.1333 168.161 71.1333 168.131 69.1333 168.151C66.4733 168.181 63.7933 168.101 61.1333 168.151C57.8833 168.211 49.3033 167.461 47.1333 168.151V168.161ZM133.133 181.161L46.6333 180.151V182.161C52.1333 182.201 57.6433 182.091 63.1333 182.161C67.4533 182.211 71.8133 182.131 76.1333 182.161L76.6433 198.171C79.1033 198.601 78.0133 196.241 78.1333 194.681C78.4433 190.551 77.9233 186.301 78.1333 182.171C96.4233 182.261 114.923 183.141 133.133 183.171C133.163 186.161 133.093 189.181 133.133 192.171C133.153 194.031 132.433 196.891 134.133 198.171C135.873 197.631 135.053 194.651 135.133 193.171C135.153 192.841 135.113 192.501 135.133 192.171C135.273 189.191 135.033 186.151 135.133 183.161H165.133L164.143 181.171H133.143L133.133 181.161Z" fill="#010101"/>
<path d="M142.134 51.1611C142.164 51.4711 142.164 51.8511 142.134 52.1611C137.064 52.6811 140.544 55.0311 141.134 56.1611C142.504 58.8011 144.574 60.1811 145.134 61.1611C145.644 62.0511 145.654 65.7611 146.144 67.1511C148.734 57.7411 149.664 64.0511 150.134 64.1611L146.134 76.1511C148.864 76.3511 151.484 75.5711 154.134 75.1611L155.134 76.1611C154.454 76.7111 151.894 90.4611 151.134 93.1611C150.644 94.9011 148.544 96.8011 150.134 99.1611C144.854 100.101 139.604 102.071 134.134 102.161C134.254 101.901 134.024 101.471 134.134 101.161C136.104 95.5211 137.284 85.3511 137.654 79.1811C135.274 81.2111 127.014 80.3411 125.594 82.1211C124.754 83.1711 122.474 99.4111 121.134 103.161C120.944 103.701 120.144 104.351 120.134 105.161C116.144 105.971 112.064 106.391 108.134 107.161C107.254 106.821 107.134 105.991 107.134 105.161C107.134 101.851 109.774 87.8611 111.134 85.1611C111.384 84.6611 112.594 83.5511 113.134 83.1611C113.514 82.8811 113.784 82.4311 114.134 82.1611C114.484 81.8911 116.444 82.8511 118.134 81.1611C119.824 79.4711 118.744 78.1311 119.134 77.1611C120.454 73.8711 123.764 64.2111 124.134 61.1611L127.614 63.1511L130.134 57.1611C131.704 56.9311 133.704 56.8111 135.134 56.1611C137.524 55.0811 138.204 53.8111 140.134 51.1611C140.374 50.8311 140.834 50.5311 141.134 50.1611C141.554 50.3211 142.094 50.7311 142.134 51.1611Z" fill="#010101"/>
<path d="M147.134 6.16137C146.194 4.92137 148.264 4.42136 143.144 3.17136L148.634 3.15137L148.144 6.15137L151.134 3.15137C152.724 3.41137 154.164 3.03137 156.124 3.63137C158.524 4.36137 160.184 5.98137 162.134 7.15137C155.494 10.7514 159.634 5.34137 153.144 5.16137L157.134 10.1514C151.084 11.6314 151.894 23.1514 159.134 23.1514L161.134 34.1514C161.194 34.3514 164.054 35.8014 164.134 37.1514C163.274 37.2714 162.714 38.2114 161.144 37.1514C160.144 40.7314 163.934 37.8314 164.124 40.1414C162.874 39.9914 161.244 40.4114 160.134 40.1514C159.934 40.1114 160.634 37.9814 159.644 38.1514C158.324 38.3814 157.074 41.0014 160.134 40.1514V41.1514C159.654 41.1714 158.764 41.9914 158.134 42.1514C155.274 42.8514 157.004 43.5114 155.144 44.1414L154.144 41.1514C153.694 44.9914 157.754 49.1214 152.134 50.1414C150.324 48.7314 147.304 49.2014 145.134 49.1414C142.394 49.0714 141.674 52.2914 142.644 47.1614C141.244 47.7214 141.534 49.6514 141.134 50.1414C140.834 50.5114 140.374 50.8114 140.134 51.1414L138.124 46.6514C144.094 46.6914 139.444 45.6814 136.134 45.1414C124.614 43.2714 121.144 49.7414 130.134 57.1414L127.614 63.1314L124.134 61.1414C124.444 58.5714 123.074 56.0314 123.134 55.1414C123.354 51.9014 122.294 47.6214 124.244 44.2214C124.464 43.8314 126.774 44.3914 127.144 44.1314C127.514 43.8714 125.954 42.4114 126.134 42.1414C126.834 41.0814 129.854 39.2114 130.134 38.1414L135.124 40.1314L132.124 39.1014C131.894 30.4414 133.424 29.7414 141.614 27.1314L140.144 30.1514L142.134 31.1414C136.784 38.6014 156.874 40.4714 146.134 29.1414C145.184 28.1414 143.484 27.5514 143.134 26.1514L149.124 27.1314L146.134 26.1314L148.124 24.1514L142.144 24.1314C140.644 21.7614 144.534 22.2414 144.144 21.6414C143.954 21.3414 136.674 19.1314 144.904 19.7914C148.574 20.0814 147.904 23.4314 150.124 17.1514C147.354 17.8814 148.084 18.3614 145.134 18.1414C150.414 14.5214 150.964 11.1614 147.134 6.14137V6.16137ZM127.124 58.1714C126.054 57.4514 124.384 58.6514 125.134 59.1514C126.204 59.8714 127.874 58.6714 127.124 58.1714Z" fill="#010101"/>
<path d="M151.134 3.16095L148.144 6.16095L148.634 3.16095L143.144 3.18095C148.264 4.43095 146.194 4.93095 147.134 6.17095C136.134 1.97095 131.884 17.181 145.134 18.171C148.094 18.391 147.364 17.901 150.124 17.181C147.904 23.461 148.574 20.121 144.904 19.821C136.674 19.161 143.954 21.3709 144.144 21.6709C144.534 22.2809 140.644 21.801 142.144 24.161L148.124 24.181L146.134 26.161L149.124 27.161L143.134 26.181C143.484 27.581 145.184 28.1709 146.134 29.1709C144.964 29.4009 142.774 30.281 142.134 31.171L140.144 30.181L141.614 27.161C133.424 29.781 131.894 30.481 132.124 39.131L135.124 40.161L130.134 38.171C134.714 20.811 101.284 35.051 126.134 42.171C125.954 42.441 127.504 43.901 127.144 44.161C126.784 44.421 124.464 43.8609 124.244 44.2509C122.294 47.6509 123.354 51.931 123.134 55.171C101.924 32.501 119.954 -1.84905 151.134 3.17095V3.16095ZM126.874 13.311C116.104 15.991 126.684 33.4609 133.584 23.101C137.054 17.891 131.864 12.071 126.874 13.311Z" fill="#050505"/>
<path d="M85.1338 38.1611C79.5838 40.5511 89.5638 31.8211 79.1338 38.1611C83.3438 25.4311 67.7638 19.1811 62.1338 32.1611C61.6038 33.3811 59.5738 36.8511 62.1238 37.1511V35.1611C62.2038 35.4511 63.0438 38.0311 63.1338 38.1611L60.6138 39.1811C61.0538 29.5511 57.8238 29.4611 49.1338 29.1511L56.1238 27.1711C52.2138 27.2411 48.1838 27.7011 47.1338 23.1711C51.4838 25.0111 48.8638 25.6711 54.1338 25.1611C55.3038 25.0511 57.3338 25.4411 58.1338 25.1611C58.0338 25.2111 57.0438 27.0711 57.1338 27.1511C58.0138 27.3511 59.5238 26.9011 60.1338 27.1611C60.3838 28.3111 60.5038 31.2211 62.1238 31.1511C61.2638 30.0311 62.2938 27.2911 62.1238 27.1711C61.8238 26.9411 60.6138 27.3711 60.1238 27.1611C60.0638 26.9011 62.7538 23.0311 58.1238 25.1611C66.0038 22.3611 67.5638 12.3711 60.1238 8.16113V7.16113C57.8738 5.79113 51.2638 4.18113 56.1238 2.16113C72.7438 7.00113 83.3938 21.2911 85.1238 38.1611H85.1338ZM57.6338 28.1611V29.1611L58.1338 28.6611L57.6338 28.1611Z" fill="#050505"/>
<path d="M41.1334 97.1613C41.9834 97.2413 43.8234 97.3813 44.1334 98.1613C44.3334 98.6713 42.9334 100.341 43.5534 101.201C43.8734 101.641 51.3334 106.341 52.6434 107.161C54.9434 108.601 53.4434 108.151 55.1334 106.161C53.8234 111.241 53.9634 109.251 49.1334 110.161C47.3134 100.541 40.0334 109.431 45.1434 111.741C47.2234 112.681 48.0434 110.371 49.1334 110.161C49.4034 111.601 46.1634 116.161 51.6434 111.171C53.2834 114.111 47.7034 115.521 45.1434 115.151L47.1334 113.181L42.1534 111.171L44.1334 116.161L42.1534 114.171C41.5434 117.601 42.7234 117.091 45.1434 118.161C46.3734 114.531 51.3934 115.001 52.1334 119.151C45.0534 114.811 50.0334 120.341 45.1434 118.161C44.8434 119.041 45.5734 120.691 44.6634 122.151C43.6934 123.711 37.2334 125.371 37.1534 128.161L42.1334 130.161L42.6334 126.171C46.1434 132.291 43.2734 126.451 48.1434 127.181C43.9534 130.081 47.6434 128.651 48.1434 130.171C40.0934 129.381 42.3534 137.851 49.1434 134.171C49.1434 137.301 47.3034 135.201 47.1534 137.161H54.1434L51.1534 136.161C51.9534 133.261 54.8434 135.431 57.1434 135.181C54.9134 136.631 55.2634 138.971 54.1534 140.171C56.4334 138.131 44.0134 137.091 43.1534 137.171C43.9034 136.411 43.6334 133.861 42.1634 134.181C42.1434 135.261 42.7534 136.211 43.1534 137.171C42.2334 137.251 40.9434 139.471 40.1534 140.171C39.5134 139.221 39.2234 137.911 37.6634 138.161C36.9534 139.941 39.6334 140.421 36.1534 140.171C36.2334 126.151 36.1634 113.401 32.2334 99.7913C32.8834 97.9213 39.3034 97.0013 41.1534 97.1713L41.1334 97.1613ZM41.1234 119.151C41.2334 118.981 41.8034 114.731 40.1434 115.161C38.5434 117.111 39.5134 121.601 41.1234 119.151ZM45.6334 136.161V137.161L46.1334 136.661L45.6334 136.161Z" fill="#040404"/>
<path d="M157.134 10.1609L153.144 5.1709C159.644 5.3509 155.494 10.7609 162.134 7.1609C178.114 16.7609 182.024 38.5809 170.134 53.1609C168.014 53.4109 167.884 53.2809 168.134 51.1609C170.884 44.3009 167.194 40.8309 160.134 41.1609V40.1609C161.244 40.4109 162.884 40.0009 164.124 40.1509C163.924 37.8409 160.144 40.7509 161.144 37.1609C162.714 38.2209 163.274 37.2809 164.134 37.1609C168.284 36.5709 174.394 37.6609 173.734 30.6409C172.944 22.3209 158.184 23.4709 161.134 34.1609L159.134 23.1609C168.614 23.1609 166.944 7.7509 157.134 10.1609Z" fill="#080808"/>
<path d="M169.134 73.1611L173.204 94.5411C172.704 95.9711 167.494 95.7811 166.134 96.1611C161.204 96.4711 163.974 95.8511 164.134 93.1611C164.524 86.4811 166.784 80.7311 167.134 74.1611C167.684 73.9511 168.324 73.1711 169.134 73.1611Z" fill="#0A0A0A"/>
<path d="M152.134 50.1609C157.754 49.1409 153.694 45.0109 154.144 41.1709L155.144 44.1609C157.004 43.5209 155.274 42.8709 158.134 42.1709C153.754 48.4409 157.464 54.5609 165.134 53.1709C163.954 53.1509 160.394 54.7309 157.624 53.8809C157.354 53.8009 158.124 52.2709 156.134 51.1709C155.594 49.4809 155.314 50.5209 154.154 51.6809C154.694 52.6909 155.764 50.9609 156.134 51.1709C156.274 51.6209 155.344 53.3709 155.874 54.9209C156.644 57.1809 159.664 54.0409 158.134 58.1509L164.114 55.6509C163.784 58.4209 154.104 59.2209 157.134 62.1609C154.984 62.8709 153.334 64.8709 150.134 64.1609C149.664 64.0609 148.744 57.7509 146.144 67.1509C145.654 65.7609 145.644 62.0509 145.134 61.1609C152.234 63.7909 157.164 54.0709 152.134 50.1609Z" fill="#090909"/>
<path d="M174.134 122.161C170.344 121.671 165.174 122.201 161.134 122.161C155.274 122.101 149.854 122.841 144.134 123.161C140.164 123.381 136.104 123.001 132.134 123.161C131.974 122.731 131.574 122.231 131.134 122.161C126.634 121.491 120.824 122.641 116.134 122.161V121.161C135.414 121.271 154.934 120.241 174.134 122.161Z" fill="#404040"/>
<path d="M174.134 122.161C174.784 122.241 175.484 122.071 176.134 122.161V155.171H189.134C188.594 156.381 175.464 157.471 174.684 155.231C174.884 151.001 176.254 124.151 174.134 123.171C172.254 122.301 163.984 123.791 161.134 123.171V122.171C165.174 122.211 170.344 121.681 174.134 122.171V122.161Z" fill="#131313"/>
<path d="M165.134 53.1609C165.464 53.1609 165.804 53.1609 166.134 53.1609C166.404 53.1609 166.824 53.9009 167.134 54.1609V56.1609C166.944 56.3209 166.354 56.0009 166.134 56.1609C164.554 57.3209 162.964 58.2609 162.134 60.1609C161.904 60.3109 161.384 60.0109 161.134 60.1609L158.134 62.1609C157.854 62.2709 157.444 62.0609 157.134 62.1609C154.104 59.2209 163.784 58.4109 164.114 55.6509L158.134 58.1509C159.674 54.0409 156.644 57.1709 155.874 54.9209C155.344 53.3709 156.274 51.6209 156.134 51.1709C158.124 52.2709 157.354 53.8009 157.624 53.8809C160.394 54.7209 163.954 53.1509 165.134 53.1709V53.1609ZM160.634 55.1609V56.1609L161.134 55.6609L160.634 55.1609Z" fill="#080808"/>
<path d="M167.134 55.1611V54.1611C167.864 54.7611 169.004 54.7711 167.134 55.1611Z" fill="#080808"/>
<path d="M64.1335 116.161C62.5335 117.791 68.1035 120.161 69.6335 120.161H91.6335C95.7935 120.161 101.323 119.261 105.133 121.161C101.803 121.131 98.4635 121.211 95.1335 121.161C88.2935 121.061 80.8535 121.641 74.1335 121.161C69.8735 120.861 63.1235 121.971 64.1335 116.161Z" fill="#E2E2E2"/>
<path d="M105.134 121.161C108.794 121.201 112.474 121.141 116.134 121.161V122.161C116.074 122.481 116.224 122.851 116.134 123.161C111.834 122.981 107.434 123.421 103.134 123.161C100.924 123.031 98.3938 122.171 95.1338 122.161V121.161C98.4638 121.211 101.804 121.131 105.134 121.161Z" fill="#393939"/>
<path d="M103.134 107.161L104.134 108.161C100.824 108.811 97.4642 109.501 94.1342 110.161C92.5642 108.631 93.9942 107.891 94.1342 107.161C95.6342 108.871 100.904 107.701 103.134 107.161Z" fill="#5A5A5A"/>
<path d="M79.1338 109.161C78.5738 113.061 79.6838 112.221 83.1338 112.161C79.2538 112.941 74.3638 113.381 71.1338 114.161V113.161C75.2838 112.501 77.7438 113.071 79.1338 109.161Z" fill="#4B4B4B"/>
<path d="M169.134 73.1614C168.324 73.1614 167.684 73.9514 167.134 74.1614C164.974 74.9614 162.994 74.7314 161.134 75.1614L160.134 74.1614C162.254 73.8114 167.114 70.5714 169.134 73.1614Z" fill="#595959"/>
<path d="M151.134 93.1611V98.1611C152.844 97.0511 154.454 97.4311 156.134 97.1611V98.1611C153.994 98.6111 152.194 98.7911 150.134 99.1611C148.544 96.8011 150.644 94.9011 151.134 93.1611Z" fill="#2D2D2D"/>
<path d="M134.134 101.161C134.024 101.471 134.254 101.901 134.134 102.161C133.904 102.611 133.534 102.881 133.134 103.161L129.134 104.161C128.234 104.341 127.034 103.981 126.134 104.161V103.161C128.314 102.781 131.404 100.871 134.134 101.161Z" fill="#323232"/>
<path d="M105.134 84.1611C105.454 84.1011 105.804 84.2111 106.134 84.1611V85.1611C103.954 85.5411 100.864 87.4511 98.1338 87.1611V86.1611C99.3438 85.9811 101.854 84.4011 103.134 84.1611C103.754 84.0411 104.514 84.2811 105.134 84.1611Z" fill="#323232"/>
<path d="M63.1338 88.1611C63.6438 89.2211 65.6738 90.1511 65.1338 92.1511C63.2738 93.0111 60.8138 92.7311 59.1338 93.1611H58.1338L62.1338 92.1511L60.1538 89.6511C62.3838 89.4611 63.5338 91.5311 63.1338 88.1611Z" fill="#E5E5E5"/>
<path d="M54.1338 94.1611V95.1611C53.6938 95.2911 53.3438 95.7611 53.1338 96.1611C51.1638 96.5611 49.0938 96.7411 47.1338 97.1611L45.1338 96.1611C48.1438 95.5011 51.0738 94.7411 54.1338 94.1611Z" fill="#595959"/>
<path d="M164.134 93.1611C163.974 95.8511 161.204 96.4711 166.134 96.1611C163.384 96.9211 160.954 97.5811 158.134 98.1611L157.134 97.1611C159.774 96.5411 162.764 95.6711 164.134 93.1611Z" fill="#424242"/>
<path d="M66.1338 111.161C65.6138 116.171 67.1338 113.461 70.1338 113.161L71.1338 114.161C70.5038 114.311 69.0638 114.871 68.1338 115.161L66.1338 116.161C65.7538 116.351 64.7338 116.041 64.1338 116.161C64.4138 114.521 65.8538 112.451 66.1338 111.161Z" fill="#6E6E6E"/>
<path d="M175.134 199.161C175.264 203.511 174.804 206.101 177.124 210.151L175.154 208.171L175.654 215.141L173.144 211.161C174.704 206.581 173.214 203.101 175.144 199.161H175.134Z" fill="#F2F2F2"/>
<path d="M126.134 103.161V104.161C124.134 104.561 122.084 104.761 120.134 105.161C120.134 104.351 120.944 103.701 121.134 103.161C122.714 102.981 124.634 103.421 126.134 103.161Z" fill="#272727"/>
<path d="M158.134 74.1611L159.134 75.1611C158.254 75.3911 155.294 76.0311 155.134 76.1611L154.134 75.1611C154.994 75.0311 156.464 74.4311 158.134 74.1611Z" fill="#5E5E5E"/>
<path d="M108.134 107.161C107.034 107.381 105.674 107.861 104.134 108.161L103.134 107.161C104.714 106.781 105.924 106.241 107.134 105.161C107.134 105.991 107.254 106.821 108.134 107.161Z" fill="#202020"/>
<path d="M45.1338 96.1613L47.1338 97.1613C46.0938 97.3813 45.0738 97.6613 44.1338 98.1613C43.8238 97.3813 41.9838 97.2413 41.1338 97.1613C41.9438 95.5513 43.9438 96.4213 45.1338 96.1613Z" fill="#363636"/>
<path d="M168.134 51.1611C167.884 53.2811 168.014 53.4111 170.134 53.1611C168.904 54.6611 168.554 54.9511 167.134 56.1611V55.1611C169.004 54.7711 167.864 54.7611 167.134 54.1611C166.824 53.9011 166.404 53.1611 166.134 53.1611C166.224 52.1911 168.054 51.3611 168.134 51.1611Z" fill="#090909"/>
<path d="M58.1338 93.1611H59.1338C57.7038 93.5311 56.6838 93.8411 55.1338 94.1611L58.1338 93.1611Z" fill="#717171"/>
<path d="M160.134 74.1611L161.134 75.1611C160.544 75.3011 159.704 75.0111 159.134 75.1611L158.134 74.1611C158.764 74.0611 159.504 74.2711 160.134 74.1611Z" fill="#212121"/>
<path d="M170.134 214.161L173.134 212.161C172.294 213.541 171.964 214.151 170.134 214.161Z" fill="#F2F2F2"/>
<path d="M178.124 214.151C177.624 214.901 176.434 213.231 177.144 212.161C177.644 211.411 178.834 213.081 178.124 214.151Z" fill="#F2F2F2"/>
<path d="M68.1338 115.161C68.0238 115.191 66.5638 115.951 66.1338 116.161L68.1338 115.161Z" fill="#E2E2E2"/>
<path d="M158.134 98.161C157.524 98.291 156.744 98.031 156.134 98.161V97.161C156.454 97.111 156.824 97.231 157.134 97.161L158.134 98.161Z" fill="#212121"/>
<path d="M161.134 60.1611C160.154 60.7511 159.684 61.5411 158.134 62.1611L161.134 60.1611Z" fill="#090909"/>
<path d="M2.13379 29.1611C2.43379 28.1711 2.94379 27.6611 3.13379 27.1611L2.13379 29.1611Z" fill="#161616"/>
<path d="M5.13379 22.1611L6.10379 24.6711L3.13379 26.1611C3.92379 24.2411 4.16379 23.8711 5.13379 22.1611Z" fill="#161616"/>
<path d="M162.134 60.1611C162.964 58.2611 164.554 57.3211 166.134 56.1611C165.254 58.0211 163.784 59.0611 162.134 60.1611Z" fill="#090909"/>
<path d="M165.134 157.161L117.134 158.161C99.0938 158.191 65.2238 160.781 49.1338 157.161H73.1338C79.7838 157.161 86.4838 157.261 93.1338 157.161C96.7938 157.111 100.474 157.211 104.134 157.161C106.424 157.131 108.614 156.171 109.134 156.161C127.694 155.911 146.634 155.511 165.134 157.161Z" fill="#CCCCCC"/>
<path d="M87.1338 124.161C84.7838 127.471 83.2038 133.191 81.1338 137.161H80.1338C80.2338 136.651 80.2038 135.701 80.1338 135.161C80.0838 134.741 79.5338 134.341 79.1338 134.161C79.0738 133.821 79.2238 133.441 79.1338 133.161C78.5438 131.251 75.8038 128.161 74.1338 128.161V122.161C78.1038 122.851 84.8038 120.271 87.1338 124.161Z" fill="#EFEFEF"/>
<path d="M67.1336 141.161C67.2036 140.801 67.0136 140.321 67.1336 140.161L77.1336 138.161C77.4636 138.141 77.8036 138.201 78.1336 138.161C78.6636 138.101 79.4936 137.341 80.1336 137.161C78.7836 144.161 72.8436 142.991 67.1336 141.161Z" fill="#EFEFEF"/>
<path d="M133.134 181.161C114.154 181.161 95.1138 181.121 76.1338 181.161C72.0638 181.161 66.7638 180.301 63.1338 182.161C57.6538 182.101 52.1338 182.201 46.6338 182.161V180.151L133.134 181.161Z" fill="#CCCCCC"/>
<path d="M41.884 37.3111C49.054 36.2111 51.134 47.7611 43.274 48.6511C35.994 49.4711 34.654 38.4211 41.884 37.3111Z" fill="#F3F3F3"/>
<path d="M56.1342 98.1609C55.9242 100.461 55.6742 104.071 55.1342 106.161C53.4442 108.151 54.9442 108.601 52.6442 107.161C51.3342 106.341 43.8742 101.641 43.5542 101.201C42.9342 100.341 44.3342 98.6709 44.1342 98.1609C45.0742 97.6609 46.0942 97.3809 47.1342 97.1609C49.0942 96.7409 51.1642 96.5609 53.1342 96.1609C53.9242 96.0009 54.7642 96.1109 55.1342 95.1609C55.4942 95.2209 55.9742 95.0409 56.1342 95.1609V98.1609Z" fill="#F5F5F5"/>
<path d="M133.134 181.161H164.134C154.114 181.921 143.124 183.171 133.134 183.161C114.924 183.131 96.4238 182.251 78.1338 182.161C77.4638 182.161 76.8038 182.161 76.1338 182.161V181.161C95.1138 181.121 114.154 181.161 133.134 181.161Z" fill="#DDDDDD"/>
<path d="M145.134 169.161C151.554 169.161 159.004 168.311 165.134 170.161C155.484 170.131 145.784 170.201 136.134 170.161C121.814 170.111 107.454 170.201 93.1338 170.161V169.161C110.454 169.181 127.814 169.141 145.134 169.161Z" fill="#EAEAEA"/>
<path d="M145.134 169.161C127.814 169.141 110.454 169.181 93.1338 169.161C87.3938 169.161 80.5538 170.021 75.1338 168.161C98.4138 168.001 121.904 167.451 145.134 169.161Z" fill="#C9C9C9"/>
<path d="M43.1334 137.161C43.9934 137.081 56.4134 138.121 54.1334 140.161C51.3734 143.151 42.2934 144.881 40.1434 143.141C39.7934 142.861 40.4134 140.571 40.1434 140.161C40.9334 139.461 42.2234 137.241 43.1434 137.161H43.1334Z" fill="#E4E4E4"/>
<path d="M61.1337 169.161C63.5937 169.141 67.2337 169.961 69.1337 168.161C71.1337 168.141 73.1337 168.171 75.1337 168.161C80.5537 170.021 87.3937 169.151 93.1337 169.161V170.161C77.4837 170.121 61.7837 170.201 46.1437 170.161C45.9937 168.991 45.8037 168.591 47.1337 168.171C51.1137 170.001 56.7637 169.201 61.1337 169.171V169.161Z" fill="#CDCDCD"/>
<path d="M164.134 181.161L165.124 183.151H135.124C135.024 186.141 135.264 189.171 135.124 192.161H133.124C133.084 189.171 133.154 186.151 133.124 183.161C143.114 183.171 154.104 181.921 164.124 181.161H164.134Z" fill="#D7D7D7"/>
<path d="M23.134 55.1611C24.804 62.0611 26.164 56.9011 33.124 58.1711L26.134 59.1711L32.124 61.1611C29.724 60.7211 24.904 61.4311 23.124 63.1611C18.044 59.5011 21.654 62.9011 20.114 63.1611C19.804 63.2111 17.724 61.5611 16.124 61.1611L23.124 55.1611H23.134Z" fill="#0C0C0C"/>
<path d="M165.134 157.161C149.284 159.011 133.064 158.131 117.134 158.161L165.134 157.161Z" fill="#CFCFCF"/>
<path d="M28.1338 22.1609L25.1338 30.1609C24.9338 28.7009 23.9738 25.2009 23.1338 24.1609V20.1709L25.1238 22.1609C23.8538 18.0209 21.4738 13.3609 26.1338 9.1709C24.4638 12.5609 24.7938 20.1309 28.1338 22.1709V22.1609Z" fill="#0E0E0E"/>
<path d="M78.1338 182.161C77.9238 186.291 78.4438 190.541 78.1338 194.671C78.0138 196.231 79.1138 198.601 76.6438 198.161L76.1338 182.151C76.8038 182.151 77.4638 182.151 78.1338 182.151V182.161Z" fill="#D2D2D2"/>
<path d="M165.134 170.161H136.134C145.784 170.201 155.484 170.131 165.134 170.161Z" fill="#CCCCCC"/>
<path d="M73.1336 156.161V157.161H49.1336C48.0436 156.921 45.8836 157.981 46.1436 156.171C55.1236 156.121 64.1536 156.191 73.1336 156.161Z" fill="#F6F6F6"/>
<path d="M48.1341 130.161C48.4541 131.121 49.1341 133.331 49.1341 134.161C42.3441 137.841 40.0841 129.371 48.1341 130.161Z" fill="#D6D6D6"/>
<path d="M75.1335 131.161V134.161C74.9935 134.451 75.2935 135.011 75.1335 135.161L73.1335 136.161C72.8735 136.201 72.3935 136.221 72.1335 136.161L70.1335 135.161C68.9835 133.451 69.8835 131.491 71.1335 130.161C72.6235 129.991 73.8135 130.741 75.1335 131.161Z" fill="#E0E0E0"/>
<path d="M95.1338 121.161V122.161C85.2238 122.121 89.8638 123.311 89.0338 124.081C88.6238 124.461 87.2538 123.991 87.1338 124.161C84.8038 120.271 78.1038 122.851 74.1338 122.161V121.161C80.8538 121.641 88.2938 121.061 95.1338 121.161Z" fill="#121212"/>
<path d="M93.1338 156.161V157.161C86.4838 157.261 79.7838 157.161 73.1338 157.161V156.161C79.7838 156.131 86.4838 156.161 93.1338 156.161Z" fill="#E7E7E7"/>
<path d="M56.1338 63.1614C59.1538 57.5814 56.6338 68.0314 62.1338 62.1614C64.2838 64.0614 69.1438 65.5514 72.1338 65.1614C64.8638 67.6814 64.1638 63.2814 62.6238 63.2814C59.5938 63.2714 61.2938 68.2314 61.1338 69.1614C59.7238 68.2214 57.0438 63.6314 56.1338 63.1614Z" fill="#0E0E0E"/>
<path d="M80.1338 137.161C79.4938 137.341 78.6638 138.101 78.1338 138.161C78.3538 137.501 79.0138 136.761 79.1338 136.161C79.1938 135.851 79.1338 135.481 79.1338 135.161H80.1338C80.2038 135.701 80.2338 136.651 80.1338 137.161Z" fill="#E6E6E6"/>
<path d="M81.1337 137.161C80.4337 138.501 79.9037 142.721 78.4437 143.191C75.7937 144.041 69.3837 142.521 66.1437 143.151C65.5837 141.401 67.1137 141.271 67.1337 141.161C72.8437 142.991 78.7837 144.161 80.1337 137.161H81.1337Z" fill="#E6E6E6"/>
<path d="M61.1338 168.161V169.161C56.7638 169.191 51.1138 169.991 47.1338 168.161C49.3038 167.471 57.8838 168.221 61.1338 168.161Z" fill="#E9E9E9"/>
<path d="M76.1338 181.161V182.161C71.8138 182.131 67.4538 182.211 63.1338 182.161C66.7638 180.301 72.0638 181.171 76.1338 181.161Z" fill="#DCDCDC"/>
<path d="M48.1341 12.1611C48.1841 10.5711 46.6141 3.64105 49.6141 9.17105L55.1341 7.16106C52.5841 7.97106 50.3641 10.7511 48.1341 12.1611Z" fill="#101010"/>
<path d="M104.134 156.161V157.161C100.474 157.211 96.7938 157.111 93.1338 157.161V156.161H104.134Z" fill="#D4D4D4"/>
<path d="M73.1341 48.1614C65.0141 46.0114 59.5341 52.2514 61.1341 60.1614C56.1041 52.6914 64.9641 43.5414 73.1341 48.1614Z" fill="#111111"/>
<path d="M79.1338 136.161C79.0138 136.761 78.3538 137.501 78.1338 138.161C77.8038 138.201 77.4638 138.141 77.1338 138.161C74.7638 138.311 69.7538 137.631 68.1338 138.161L78.1338 137.151C76.7438 135.061 77.1338 134.821 79.1338 136.161Z" fill="#181818"/>
<path d="M77.1338 138.161L67.1338 140.161C67.5038 139.671 68.0038 138.201 68.1338 138.161C69.7538 137.631 74.7638 138.311 77.1338 138.161Z" fill="#E6E6E6"/>
<path d="M69.1338 168.161C67.2338 169.961 63.5938 169.141 61.1338 169.161V168.161C63.7938 168.111 66.4738 168.191 69.1338 168.161Z" fill="#D4D4D4"/>
<path d="M135.134 192.161C135.114 192.491 135.154 192.831 135.134 193.161L134.134 198.161C132.434 196.881 133.154 194.021 133.134 192.161H135.134Z" fill="#DADADA"/>
<path d="M74.1338 128.161C75.8038 128.161 78.5438 131.251 79.1338 133.161C75.8438 134.881 79.4938 132.531 75.1338 131.161C73.8138 130.741 72.6238 129.991 71.1338 130.161C71.4238 129.851 73.9538 128.161 74.1338 128.161Z" fill="#181818"/>
<path d="M9.13415 35.1614C9.02415 35.1014 7.47415 36.8814 6.60415 35.1614C6.11415 34.2114 6.88415 30.4914 7.13415 29.1514L9.13415 35.1514V35.1614Z" fill="#161616"/>
<path d="M109.134 156.161C108.614 156.161 106.424 157.131 104.134 157.161V156.161H109.134Z" fill="#CFCFCF"/>
<path d="M134.134 198.161L135.134 193.161C135.054 194.641 135.874 197.621 134.134 198.161Z" fill="#D7D7D7"/>
<path d="M27.144 38.1609L29.124 36.1709L26.124 36.6709L27.144 38.1609Z" fill="#0E0E0E"/>
<path d="M37.1238 60.1513L34.1338 59.1713C36.6338 58.8913 37.4538 56.7513 37.1238 60.1513Z" fill="#0C0C0C"/>
<path d="M60.1338 7.16122V8.16122C59.6038 7.86122 57.7638 8.47122 57.1338 7.16122C58.1238 7.09122 59.1438 7.21122 60.1338 7.16122Z" fill="#101010"/>
<path d="M7.13379 28.1611C7.49379 26.9511 7.04379 26.7511 8.13379 25.1611L7.13379 28.1611Z" fill="#161616"/>
<path d="M56.1338 98.1611V95.1611C58.4038 96.8211 56.1938 97.4711 56.1338 98.1611Z" fill="#717171"/>
<path d="M36.1338 64.1612C35.1038 63.6612 34.1338 62.5912 33.1338 62.1612C39.1738 60.1412 35.5638 62.2912 36.1338 64.1612Z" fill="#0C0C0C"/>
<path d="M75.1338 135.161C74.2538 136.001 74.3938 135.951 73.1338 136.161L75.1338 135.161Z" fill="#181818"/>
<path d="M72.1338 136.161C71.0938 135.921 70.9138 136.321 70.1338 135.161L72.1338 136.161Z" fill="#181818"/>
<path d="M75.1338 134.161V132.161C76.6238 133.251 75.4938 133.421 75.1338 134.161Z" fill="#181818"/>
<path d="M55.1338 95.1611C54.7638 96.1111 53.9238 96.0011 53.1338 96.1611C53.3438 95.7611 53.6938 95.2911 54.1338 95.1611C54.3638 95.0911 54.8838 95.1211 55.1338 95.1611Z" fill="#717171"/>
<path d="M64.1239 70.171C64.8739 70.671 63.2039 71.861 62.1339 71.151C61.3839 70.651 63.0539 69.461 64.1239 70.171Z" fill="#0E0E0E"/>
<path d="M68.1239 67.171C68.8739 67.671 67.2039 68.861 66.1339 68.151C65.3839 67.651 67.0539 66.461 68.1239 67.171Z" fill="#0E0E0E"/>
<path d="M23.1338 35.1611L25.1338 31.1611C25.4338 37.9311 23.4138 34.9911 23.1338 35.1611Z" fill="#0E0E0E"/>
<path d="M27.1241 33.1512C26.6241 33.9012 25.4341 32.2312 26.1441 31.1612C26.6441 30.4112 27.8341 32.0812 27.1241 33.1512Z" fill="#0E0E0E"/>
<path d="M4.12413 32.1512C3.62413 32.9012 2.43413 31.2312 3.14413 30.1612C3.64413 29.4112 4.83413 31.0812 4.12413 32.1512Z" fill="#161616"/>
<path d="M80.1338 135.161H79.1338C79.1338 134.841 79.1838 134.471 79.1338 134.161C79.5338 134.341 80.0838 134.741 80.1338 135.161Z" fill="#181818"/>
<path d="M27.6338 34.1611L28.1338 34.6611L27.6338 35.1611V34.1611Z" fill="#0E0E0E"/>
<path d="M4.63379 27.1611L5.13379 27.6611L4.63379 28.1611V27.1611Z" fill="#161616"/>
<path d="M132.134 123.161H131.134V122.161C131.574 122.231 131.974 122.731 132.134 123.161Z" fill="#393939"/>
<path d="M53.6338 5.16113L54.1338 5.66113L53.6338 6.16113V5.16113Z" fill="#101010"/>
<path d="M35.6436 56.1812C36.4036 56.6112 36.0336 56.6612 35.6436 57.1612C34.1636 59.0612 33.5336 57.6212 35.6436 56.1812Z" fill="#0C0C0C"/>
<path d="M136.134 45.1612C139.184 49.4012 138.314 52.4012 135.134 56.1612C133.704 56.8112 131.704 56.9312 130.134 57.1612C121.144 49.7612 124.614 43.2912 136.134 45.1612Z" fill="#F5F5F5"/>
<path d="M152.134 50.1613C157.164 54.0713 152.234 63.7913 145.134 61.1613C144.574 60.1813 142.504 58.8013 141.134 56.1613C141.354 54.8313 141.994 53.5013 142.134 52.1613C142.164 51.8513 142.164 51.4713 142.134 51.1613L145.134 49.1613C147.304 49.2213 150.324 48.7513 152.134 50.1613Z" fill="#F6F6F6"/>
<path d="M113.134 83.1611C112.594 83.5511 111.384 84.6611 111.134 85.1611C109.554 85.3411 107.634 84.9011 106.134 85.1611V84.1611C108.464 83.7911 110.754 83.1611 113.134 83.1611Z" fill="#232323"/>
<path d="M142.134 52.1611C141.994 53.5011 141.354 54.8311 141.134 56.1611C140.544 55.0311 137.064 52.6811 142.134 52.1611Z" fill="#101010"/>
<path d="M136.134 45.1611C139.444 45.7011 144.094 46.7111 138.124 46.6711L140.134 51.1611C138.204 53.8111 137.524 55.0811 135.134 56.1611C138.314 52.4011 139.184 49.4011 136.134 45.1611Z" fill="#101010"/>
<path d="M141.134 50.1612C141.534 49.6712 141.244 47.7412 142.644 47.1812C141.674 52.3112 142.394 49.0912 145.134 49.1612L142.134 51.1612C142.094 50.7312 141.554 50.3212 141.134 50.1612Z" fill="#101010"/>
<path d="M147.134 6.16132C150.964 11.1813 150.414 14.5413 145.134 18.1613C131.884 17.1713 136.134 1.96132 147.134 6.16132Z" fill="#F5F5F5"/>
<path d="M159.134 23.1611C151.894 23.1611 151.084 11.6411 157.134 10.1611C166.944 7.75111 168.614 23.1611 159.134 23.1611Z" fill="#F3F3F3"/>
<path d="M126.134 42.1614C101.284 35.0414 134.714 20.8014 130.134 38.1614C129.854 39.2314 126.834 41.1014 126.134 42.1614Z" fill="#F4F4F4"/>
<path d="M168.134 51.1612C168.054 51.3612 166.224 52.1912 166.134 53.1612C165.804 53.1612 165.464 53.1612 165.134 53.1612C157.464 54.5512 153.754 48.4312 158.134 42.1612C158.764 42.0012 159.654 41.1812 160.134 41.1612C167.194 40.8312 170.884 44.3012 168.134 51.1612Z" fill="#F5F5F5"/>
<path d="M146.133 29.1611C156.873 40.4911 136.783 38.6211 142.133 31.1611C142.773 30.2711 144.963 29.3911 146.133 29.1611Z" fill="#EBEBEB"/>
<path d="M160.134 40.1612C157.074 41.0112 158.324 38.4012 159.644 38.1612C160.634 37.9812 159.944 40.1112 160.134 40.1612Z" fill="#121212"/>
<path d="M127.124 58.171C127.874 58.671 126.204 59.861 125.134 59.151C124.384 58.651 126.054 57.461 127.124 58.171Z" fill="#010101"/>
<path d="M126.873 13.311C131.863 12.071 137.053 17.891 133.583 23.101C126.683 33.451 116.103 15.981 126.873 13.311Z" fill="#F6F6F6"/>
<path d="M58.1335 25.1612C62.7635 23.0312 60.0735 26.9012 60.1335 27.1612C60.6235 27.3712 61.8335 26.9412 62.1335 27.1712C62.2935 27.2912 61.2635 30.0312 62.1335 31.1512C60.5135 31.2212 60.3935 28.3112 60.1435 27.1612C59.5335 26.9012 58.0235 27.3412 57.1435 27.1512C57.0535 27.0712 58.0435 25.2112 58.1435 25.1612H58.1335Z" fill="#010101"/>
<path d="M62.1341 35.1611V37.1511C59.5741 36.8511 61.6041 33.3811 62.1341 32.1611C62.2641 33.1111 61.9441 34.3011 62.1341 35.1611Z" fill="#010101"/>
<path d="M57.6338 28.1611L58.1338 28.6611L57.6338 29.1611V28.1611Z" fill="#010101"/>
<path d="M49.1338 110.161C48.0438 110.371 47.2238 112.671 45.1438 111.741C40.0338 109.441 47.3138 100.551 49.1338 110.161Z" fill="#D4D4D4"/>
<path d="M41.1235 119.151C39.5235 121.601 38.5435 117.111 40.1435 115.161C41.8035 114.731 41.2335 118.971 41.1235 119.151Z" fill="#7D7D7D"/>
<path d="M43.134 137.161C42.734 136.201 42.124 135.251 42.144 134.171C43.614 133.851 43.884 136.401 43.134 137.161Z" fill="#010101"/>
<path d="M156.133 51.1614C155.763 50.9614 154.693 52.6814 154.153 51.6714C155.313 50.5014 155.583 49.4714 156.133 51.1614Z" fill="#010101"/>
<path d="M160.634 55.1611L161.134 55.6611L160.634 56.1611V55.1611Z" fill="#090909"/>
<path d="M71.1338 114.161L70.1338 113.161C70.4638 113.131 70.8138 113.211 71.1338 113.161V114.161Z" fill="#676767"/>
<path d="M68.1239 28.171C68.8739 28.671 67.2039 29.861 66.1339 29.151C65.3839 28.651 67.0539 27.461 68.1239 28.171Z" fill="#E7E7E7"/>
<path d="M45.6338 136.161L46.1338 136.661L45.6338 137.161V136.161Z" fill="#010101"/>
</svg>
