<svg width="70" height="78" viewBox="0 0 70 78" fill="none" xmlns="http://www.w3.org/2000/svg">
<path d="M34.6096 32.8308C34.4896 33.0308 31.1396 33.2808 31.5896 35.8308L28.6196 32.8308C30.8596 38.4708 19.6696 34.0108 19.6296 37.3308C19.5796 40.9908 29.0696 35.0808 26.6196 40.8308C30.4096 36.7508 32.8196 40.2808 36.2396 40.5208C40.8296 40.8508 44.3096 36.7408 46.1196 43.7908C48.2896 52.2408 44.8296 49.2708 39.2196 51.9308C36.0696 53.4208 34.4896 56.5508 30.6096 55.8308C33.2396 61.1108 29.3696 59.4008 28.6996 61.4408C27.8896 63.9208 30.5196 66.4308 27.6196 68.8108C29.3496 68.6708 31.0196 69.6408 32.6196 69.8208C30.8496 71.3908 30.3996 74.7608 27.3696 76.0708C18.4096 79.9508 9.30961 74.9608 12.6196 64.8308C10.8096 65.0108 9.46961 66.1208 7.61961 66.8308C1.52961 67.7108 2.63961 64.0808 4.92961 60.1308C5.49961 59.1508 8.89961 58.7108 7.61961 54.8308C7.78961 54.5808 16.3096 57.2208 12.6096 53.8508C12.4796 53.7308 10.3496 53.4308 9.11961 52.8408C7.88961 52.2508 4.91961 52.0808 5.61961 50.3508C6.81961 47.3608 9.6296 51.4108 12.0196 50.7908C13.8796 50.3108 13.7396 47.3708 13.6096 45.8408L8.61961 46.8308C10.8896 40.8708 22.6996 48.2708 19.6096 38.8408C19.2196 38.3508 16.8096 41.8808 15.6196 40.8408C13.8196 39.2508 18.5496 38.0608 19.0696 36.9008C19.5596 35.8108 18.9396 30.4208 18.6096 28.8508C23.8296 27.2908 21.0796 33.4108 22.5696 34.3708C23.1096 34.7208 26.3796 34.0708 27.5696 34.8508C30.3096 30.0608 24.3096 28.4408 24.5996 23.8608C27.4096 23.2308 34.8296 22.2808 36.1496 24.8508C37.3296 27.1408 35.5896 27.8308 34.8696 29.6708C34.4296 30.7908 34.7296 32.6308 34.5996 32.8408L34.6096 32.8308ZM36.6096 49.8408C34.1496 49.9008 30.5796 48.9908 29.6096 51.8208C32.0696 51.7608 35.6396 52.6708 36.6096 49.8408Z" fill="#695547"/>
<path d="M61.6094 63.8306L53.6194 54.8306C51.6594 60.5806 57.9694 62.1806 59.6094 64.8306C61.5194 67.9206 60.5594 75.2206 56.8694 76.5906C53.6294 77.7906 48.3994 78.4206 45.2394 76.7006C42.5294 75.2206 40.3594 70.4605 38.9494 69.9905C37.0894 69.3705 34.5794 70.0606 32.6094 69.8306C34.9594 67.7406 39.1094 69.3406 39.6094 68.8306C39.8294 68.6106 39.3894 64.2505 39.8394 62.5605C40.0494 61.7805 44.6294 53.4906 45.2494 52.9706C45.5894 52.6906 47.4994 51.7106 47.5994 51.8306L46.6094 56.8206H52.6094C53.6394 55.9206 50.7694 48.5406 50.0194 46.9106C49.5494 45.8806 47.9494 45.1305 47.7394 44.1805C47.1894 41.5905 52.6894 38.4406 51.5794 36.8406C49.7194 36.9506 49.4494 35.6405 48.5894 34.8105C56.7394 36.3405 73.1194 53.6106 69.0994 61.8206C67.3494 65.3906 64.1394 64.0705 61.5894 63.8105L61.6094 63.8306Z" fill="#655145"/>
<path d="M46.6089 3.83062L35.6389 4.32061C36.3289 11.4006 40.1689 8.81063 41.6189 9.84063C42.4389 10.4206 39.6989 16.5906 39.6189 17.4006C38.9689 23.6006 39.2289 20.7606 37.7989 25.5706C37.3289 27.1606 38.7489 30.6906 36.6089 32.8406C36.1089 33.0606 35.6889 33.5707 35.0989 33.6707L34.6089 32.8406C34.7389 32.6306 34.4489 30.7906 34.8789 29.6706C35.5889 27.8306 37.3289 27.1406 36.1589 24.8506C34.8389 22.2706 27.4089 23.2307 24.6089 23.8607C24.3189 28.4307 30.3289 30.0606 27.5789 34.8506C26.3889 34.0706 23.1189 34.7206 22.5789 34.3706C21.0889 33.4106 23.8389 27.2906 18.6189 28.8506C18.9489 30.4206 19.5689 35.8206 19.0789 36.9006C18.5589 38.0506 13.8289 39.2506 15.6289 40.8406C16.8089 41.8806 19.2189 38.3506 19.6189 38.8406C22.7089 48.2706 10.8989 40.8706 8.62888 46.8306L13.6189 45.8406C13.7489 47.3706 13.8889 50.3106 12.0289 50.7906C9.6489 51.4006 6.83888 47.3606 5.62888 50.3506C4.92888 52.0806 7.87888 52.2506 9.12888 52.8406C10.3789 53.4306 12.4889 53.7306 12.6189 53.8506C16.3189 57.2206 7.79888 54.5806 7.62888 54.8306C8.90888 58.7106 5.50887 59.1606 4.93887 60.1306C2.64887 64.0806 1.53888 67.7106 7.62888 66.8306C2.06888 68.9606 -0.971098 65.6306 0.278902 60.0706C0.558902 58.8406 4.0389 50.7506 4.7489 49.4606C5.7689 47.6106 11.8289 40.6506 13.5689 39.2706C16.0289 37.3306 18.0089 38.9606 17.6789 35.3006C17.6089 34.5006 14.7089 31.6506 13.8089 30.1706C12.9889 28.8306 12.8489 26.7807 12.0989 25.8607C10.4089 23.7907 6.4689 25.2406 6.1189 19.3706C5.8789 15.3706 7.29889 10.5606 11.5789 9.23065C14.1289 8.44065 15.6789 9.8706 16.9989 9.6206C18.0389 9.4206 18.7189 7.82064 19.6889 7.41064C26.4189 4.56064 29.9289 5.77065 36.3489 1.86065C41.0489 -0.999348 43.4289 -0.729368 46.6189 3.84063L46.6089 3.83062ZM37.4689 18.6906C38.5989 17.9206 39.4389 11.7806 37.0989 10.8306C36.9389 14.3306 32.8089 11.9706 31.7189 12.9606C31.4089 13.2406 31.6389 14.9406 31.0589 15.7906C30.2989 16.9206 26.9289 16.7106 29.0989 18.8406C31.0289 18.4206 36.2789 19.5006 37.4589 18.7006L37.4689 18.6906Z" fill="#7C6556"/>
<path d="M36.6089 32.8307C45.2889 29.0307 40.8289 23.8907 43.6189 15.8307C46.1389 15.4907 45.1889 15.9307 45.7189 17.2607C47.1989 21.0107 45.0689 21.6707 43.5989 24.8207C47.2889 24.2407 46.9089 25.4807 46.6089 28.8307C46.5089 29.9607 45.5489 31.3808 45.5689 32.2308C45.5689 32.4308 47.7889 34.0407 48.6089 34.8307C49.4689 35.6607 49.7389 36.9608 51.5989 36.8608C52.6989 38.4608 47.2089 41.6107 47.7589 44.2007C47.9589 45.1407 49.5589 45.9007 50.0389 46.9307C50.7889 48.5607 53.6589 55.9408 52.6289 56.8408H46.6289L47.6189 51.8408C47.5189 51.7208 45.6089 52.7008 45.2689 52.9808C44.6489 53.5008 40.0689 61.7907 39.8589 62.5707C39.4089 64.2707 39.8589 68.6208 39.6289 68.8408C39.1289 69.3508 34.9689 67.7508 32.6289 69.8408C31.0289 69.6608 29.3589 68.6907 27.6289 68.8307C30.5289 66.4507 27.8989 63.9308 28.7089 61.4608C29.3789 59.4208 33.2489 61.1308 30.6189 55.8508C34.4989 56.5708 36.0789 53.4407 39.2289 51.9507C44.8389 49.2907 48.2989 52.2607 46.1289 43.8107C44.3189 36.7607 40.8489 40.8608 36.2489 40.5408C32.8289 40.3008 30.4189 36.7708 26.6289 40.8508C29.0789 35.1008 19.5889 41.0008 19.6389 37.3508C19.6789 34.0308 30.8689 38.4908 28.6289 32.8508L31.5989 35.8508C31.1489 33.3008 34.4989 33.0508 34.6189 32.8508L35.1089 33.6807C35.6989 33.5807 36.1289 33.0708 36.6189 32.8508L36.6089 32.8307Z" fill="#4B3C32"/>
<path d="M46.6087 3.83081C51.2887 10.5408 47.0887 10.9808 46.6087 15.3708C46.2087 19.0408 50.7687 24.6308 46.6087 28.8308C46.9087 25.4908 47.2987 24.2508 43.5987 24.8208C45.0687 21.6708 47.1987 21.0108 45.7187 17.2608C45.1887 15.9208 46.1387 15.4908 43.6187 15.8308C40.8287 23.8908 45.2887 29.0308 36.6087 32.8308C38.7487 30.6808 37.3187 27.1508 37.7987 25.5608C39.2287 20.7508 38.9687 23.5908 39.6187 17.3908C39.6987 16.5808 42.4387 10.4108 41.6187 9.83081C40.1687 8.81081 36.3287 11.3908 35.6387 4.31079L46.6087 3.8208V3.83081Z" fill="#695547"/>
<path d="M36.6094 49.8404C35.6394 52.6704 32.0694 51.7604 29.6094 51.8204C30.5794 48.9904 34.1494 49.9004 36.6094 49.8404Z" fill="#4B3C32"/>
<path d="M37.4684 18.6908C36.2884 19.4908 31.0385 18.4108 29.1085 18.8308C26.9385 16.7008 30.3085 16.9108 31.0685 15.7808C31.6485 14.9308 31.4185 13.2308 31.7285 12.9508C32.8185 11.9608 36.9485 14.3208 37.1085 10.8208C39.4485 11.7708 38.5985 17.9208 37.4785 18.6808L37.4684 18.6908Z" fill="#695547"/>
</svg>
