<svg width="198" height="193" viewBox="0 0 198 193" fill="none" xmlns="http://www.w3.org/2000/svg">
<path d="M59.2253 24.1942C59.3253 24.8242 59.0753 25.6642 59.2253 26.1942C56.7453 24.2042 55.0353 23.3041 51.7353 23.1041C48.8253 22.9241 38.5753 22.9341 35.7653 23.1641C20.3853 24.3941 28.2853 47.5042 36.2253 53.1942V54.1942C24.9353 48.3442 18.1653 22.3741 35.7853 21.1841C38.8853 20.9741 48.5953 20.9341 51.7153 21.1141C55.4553 21.3241 56.5353 21.6342 59.2253 24.1942Z" fill="#E9EAE9"/>
<path d="M161.374 24.8481C162.784 26.6881 164.264 26.1282 164.394 31.4182C164.994 55.6882 136.014 68.5581 128.374 40.8481H129.374C129.994 42.9881 138.604 53.6381 140.394 54.3181C155.154 59.9281 167.304 34.0581 161.374 24.8481Z" fill="#E9EAEA"/>
<path d="M133.374 20.848C140.104 19.488 156.964 19.108 161.374 24.848C160.564 23.588 154.754 21.878 152.874 21.748C150.344 21.568 139.414 21.598 136.884 21.788C127.144 22.528 127.204 33.398 129.364 40.838H128.364C128.184 40.188 127.454 39.418 127.364 38.838C126.554 33.698 126.544 22.218 133.364 20.838L133.374 20.848Z" fill="#E7E5E9"/>
<path d="M60.2256 43.1943C56.6256 53.2843 45.4956 63.4743 36.2256 54.1943V53.1943C45.2656 59.6843 55.4656 51.3243 59.2256 43.1943H60.2256Z" fill="#ECEBED"/>
<path d="M60.2256 43.1943H59.2256C60.9856 39.3943 61.3556 33.4043 61.2256 29.1943V28.1943C63.0156 34.9943 62.4656 36.9143 60.2256 43.1943Z" fill="#E7E1E5"/>
<path d="M61.226 28.1943V29.1943C60.246 28.4243 59.576 27.3843 59.226 26.1943C59.076 25.6643 59.326 24.8243 59.226 24.1943C61.476 26.3343 60.556 25.6543 61.226 28.1943Z" fill="#E7E7E7"/>
<path d="M42.2254 30.1944C42.4654 30.2844 42.9154 32.4644 44.6154 32.1544C45.5754 31.9844 47.1554 28.8244 49.2254 29.1944C49.8754 29.1744 50.1554 30.1744 50.2254 30.1944C50.6254 31.5444 45.0754 34.2544 44.7354 34.2944C42.8054 34.5244 37.5154 29.8344 36.2654 30.2344C35.8454 32.4244 34.2054 31.8244 34.1554 34.6144C34.0554 40.2744 35.3254 37.4344 36.2354 38.1844V42.1844C31.9754 38.8644 31.0354 32.4344 34.2354 28.1844C38.4854 28.1044 38.8654 28.9544 42.2354 30.1844L42.2254 30.1944Z" fill="#AD5E54"/>
<path d="M54.2256 38.1943C54.1056 39.2643 51.9956 42.9843 51.2256 44.1943C51.0156 44.5243 46.5556 49.9743 46.2256 50.1943C41.7056 53.1843 39.7856 47.4843 37.2256 45.1943L40.2256 44.1943C46.6256 56.4243 46.4856 37.8343 54.2256 36.1943C54.2656 36.8343 54.2956 37.5643 54.2256 38.1943Z" fill="#B5584B"/>
<path d="M34.2252 28.1945C31.0252 32.4445 31.9652 38.8745 36.2252 42.1945V44.1945C36.0152 43.9945 33.5752 44.4945 32.6252 43.2345C32.0052 42.4045 33.3352 40.3145 33.2352 40.2045C32.9552 39.8845 30.5853 40.8645 30.1453 39.6645C29.2753 37.2445 31.8252 31.4245 30.2252 28.2045C31.5552 28.1645 32.8852 28.2245 34.2252 28.2045V28.1945Z" fill="#FCEEE9"/>
<path d="M54.2256 38.1944C54.2956 37.5644 54.2656 36.8344 54.2256 36.1944C54.2056 35.8344 52.4356 29.4843 52.2156 29.1843C52.0156 28.9143 50.3756 30.2444 50.2256 30.1944C50.1556 30.1744 49.8756 29.1744 49.2256 29.1944V28.1944C55.8656 27.9144 56.7156 32.9044 54.2256 38.1944Z" fill="#B75B53"/>
<path d="M36.2256 38.1943C41.6856 42.7243 38.1456 40.2243 40.2256 44.1943L37.2256 45.1943C36.8656 44.8743 36.5656 44.5143 36.2256 44.1943V38.1943Z" fill="#BE5246"/>
<path d="M49.2256 28.1943V29.1943C47.1556 28.8243 45.5756 31.9844 44.6156 32.1544C42.9156 32.4644 42.4656 30.2843 42.2256 30.1943C44.9756 30.2143 46.3356 28.3143 49.2256 28.1943Z" fill="#F9E2DC"/>
<path d="M51.2256 44.1943C52.6756 48.9743 47.3256 46.8543 48.2356 51.6743L46.2256 50.1943C46.5556 49.9743 51.0156 44.5243 51.2256 44.1943Z" fill="#F8EDE6"/>
<path d="M155.374 27.848C159.804 31.398 155.654 38.308 153.374 41.848L151.374 39.848C152.134 38.068 156.834 32.9179 155.314 30.9079C152.634 30.0079 150.034 30.828 147.374 30.848C148.524 27.358 152.354 27.638 155.374 27.848Z" fill="#B7574C"/>
<path d="M135.375 27.8482C137.195 27.0282 144.725 28.2882 144.375 31.8482C144.045 31.8482 143.705 31.8782 143.375 31.8482C141.475 31.6582 136.304 26.3082 135.414 31.5882C135.144 33.2082 138.345 39.3682 139.375 40.8482H137.375C135.815 38.3082 130.165 30.1882 135.375 27.8482Z" fill="#B7584D"/>
<path d="M153.374 41.8481C146.644 52.3181 143.484 50.7681 137.374 40.8481H139.374C142.494 45.3281 145.674 50.8081 149.374 42.8481L151.364 43.8481C151.564 42.9781 151.114 41.4381 151.374 40.8481C151.494 40.5681 151.254 40.1281 151.374 39.8481L153.374 41.8481Z" fill="#B65A50"/>
<path d="M155.374 27.8479C152.354 27.6379 148.524 27.3579 147.374 30.8479C146.834 30.8479 145.494 31.8779 144.374 31.8479C144.724 28.2879 137.194 27.0279 135.374 27.8479C138.644 24.6279 142.604 28.9479 145.794 28.8379C148.984 28.7279 151.454 24.7079 155.374 27.8479Z" fill="#F8E5DA"/>
<path d="M54.2252 36.1944C46.4852 37.8344 46.6252 56.4244 40.2252 44.1944C38.1452 40.2244 41.6852 42.7244 36.2252 38.1944C35.3152 37.4344 34.0452 40.2844 34.1452 34.6244C34.1952 31.8344 35.8352 32.4244 36.2552 30.2444C37.5052 29.8444 42.8052 34.5244 44.7252 34.3044C45.0652 34.2644 50.6252 31.5544 50.2152 30.2044C50.3652 30.2544 52.0052 28.9244 52.2052 29.1944C52.4252 29.4844 54.1952 35.8344 54.2152 36.2044L54.2252 36.1944Z" fill="#C44E40"/>
<path d="M102.593 67.5857H101.593C101.533 67.3257 98.8333 63.3457 98.5333 63.1457C95.8633 61.4057 73.7233 61.1757 70.9233 62.9157C61.2633 68.9057 72.7933 87.9357 78.5933 93.5857V94.5857C69.3733 91.4357 61.4533 69.5156 69.0333 62.5156C72.7533 59.0856 98.1533 59.2057 101.073 62.6157C102.563 64.3557 102.193 65.7657 102.593 67.5857Z" fill="#EAEAE9"/>
<path d="M100.594 83.5854C96.5837 93.0954 88.9637 98.1354 78.5938 94.5854V93.5854C86.2238 98.0954 96.6437 88.9854 99.5938 82.5854L100.594 83.5854Z" fill="#EAE9EA"/>
<path d="M100.594 83.5854L99.5938 82.5854C101.364 78.7554 102.544 71.6254 101.594 67.5854H102.594C103.824 73.0854 102.754 78.4754 100.594 83.5854Z" fill="#DDE4E5"/>
<path d="M94.5935 68.5855C88.0135 69.6455 86.8335 70.7755 84.5735 76.5555L82.5935 76.0755C81.4435 72.3255 84.7535 72.3655 80.6035 70.5755C79.7335 70.2055 77.8035 70.4755 76.6135 69.5755C76.5935 71.9055 76.6035 74.2455 76.6035 76.5755V78.5755H75.6035C75.4635 78.2355 74.7035 77.8955 74.6035 77.5755V68.5755C78.8635 64.4955 82.8435 70.3755 85.1035 70.6055C85.6535 70.6655 90.0535 63.6255 94.6035 68.5755L94.5935 68.5855Z" fill="#B65C4E"/>
<path d="M91.5938 82.5852C90.9438 84.7052 86.3637 89.7252 84.0237 89.6152C82.1937 89.5352 80.8637 85.9952 79.5938 84.5852H80.5938C81.1737 84.7152 82.2637 84.3852 82.5938 84.5852C82.7938 84.7052 81.6038 87.4952 85.8638 86.5552C86.0638 86.5152 88.2138 84.0352 88.5938 83.5852C88.7137 83.4452 90.2837 81.0752 90.5938 80.5852C91.5238 80.4652 91.7738 82.0152 91.5938 82.5852Z" fill="#A75E55"/>
<path d="M94.5938 79.5854L92.5938 82.5854H91.5938C91.7738 82.0154 91.5238 80.4654 90.5938 80.5854C91.8737 78.5654 96.0838 70.3754 94.5938 68.5854C97.8238 72.0854 95.9737 75.4754 94.5938 79.5854Z" fill="#B15D54"/>
<path d="M76.5938 78.5854C79.7137 77.9954 78.1738 79.7854 78.5938 80.5854C79.2038 81.7254 79.2938 83.5254 80.5938 84.5854H79.5938C76.8937 81.5854 77.3038 82.6454 75.5938 78.5854H76.5938Z" fill="#B75E52"/>
<path d="M74.5939 77.5854C73.7739 74.9054 72.1839 71.0054 74.5939 68.5854V77.5854Z" fill="#8E655F"/>
<path d="M94.5938 68.5854C96.0838 70.3754 91.8737 78.5654 90.5938 80.5854C90.2837 81.0754 88.7137 83.4454 88.5938 83.5854C87.5938 82.5954 85.2837 82.9454 84.5938 82.5854C84.2637 82.4154 83.9938 78.8754 78.5938 80.5854C78.1738 79.7854 79.7137 77.9954 76.5938 78.5854V76.5854C79.3138 76.9354 80.4738 72.8854 80.5938 70.5854C84.7438 72.3754 81.4337 72.3254 82.5837 76.0854L84.5637 76.5654C86.8337 70.7854 88.0037 69.6555 94.5837 68.5955L94.5938 68.5854Z" fill="#C45043"/>
<path d="M80.5933 70.5854C80.4733 72.8854 79.3133 76.9354 76.5933 76.5854C76.5933 74.2554 76.5833 71.9154 76.6033 69.5854C77.7933 70.4854 79.7233 70.2154 80.5933 70.5854Z" fill="#D74433"/>
<path d="M84.5937 82.5854C85.2837 82.9454 87.5937 82.5854 88.5937 83.5854C88.2237 84.0354 86.0637 86.5154 85.8637 86.5554C81.6037 87.4954 82.7937 84.7054 82.5937 84.5854C82.3437 82.4654 82.4737 82.3354 84.5937 82.5854Z" fill="#CE4C40"/>
<path d="M78.5938 80.5855C83.9938 78.8755 84.2637 82.4155 84.5938 82.5855C82.4738 82.3355 82.3438 82.4655 82.5938 84.5855C82.2637 84.3855 81.1737 84.7155 80.5938 84.5855C79.2938 83.5255 79.2038 81.7255 78.5938 80.5855Z" fill="#BD5342"/>
<path d="M179.593 80.5857H178.593C178.533 80.3257 175.833 76.3457 175.533 76.1457C172.863 74.4057 150.723 74.1757 147.923 75.9157C138.263 81.9057 149.793 100.936 155.593 106.586V107.586C146.373 104.436 138.453 82.5156 146.033 75.5156C149.753 72.0856 175.153 72.2057 178.073 75.6157C179.563 77.3557 179.193 78.7657 179.593 80.5857Z" fill="#EAEAE9"/>
<path d="M177.594 96.5854C173.584 106.095 165.964 111.135 155.594 107.585V106.585C163.224 111.095 173.644 101.985 176.594 95.5854L177.594 96.5854Z" fill="#EAE9EA"/>
<path d="M177.594 96.5854L176.594 95.5854C178.364 91.7554 179.544 84.6254 178.594 80.5854H179.594C180.824 86.0854 179.754 91.4754 177.594 96.5854Z" fill="#DDE4E5"/>
<path d="M171.594 81.5855C165.014 82.6455 163.833 83.7755 161.573 89.5555L159.594 89.0755C158.444 85.3255 161.754 85.3655 157.604 83.5755C156.734 83.2055 154.804 83.4755 153.614 82.5755C153.594 84.9055 153.604 87.2455 153.604 89.5755V91.5755H152.604C152.464 91.2355 151.704 90.8955 151.604 90.5755V81.5755C155.864 77.4955 159.844 83.3755 162.104 83.6055C162.654 83.6655 167.054 76.6255 171.604 81.5755L171.594 81.5855Z" fill="#B65C4E"/>
<path d="M168.594 95.5852C167.944 97.7052 163.364 102.725 161.024 102.615C159.194 102.535 157.864 98.9952 156.594 97.5852H157.594C158.174 97.7152 159.264 97.3852 159.594 97.5852C159.794 97.7052 158.604 100.495 162.864 99.5552C163.064 99.5152 165.214 97.0352 165.594 96.5852C165.714 96.4452 167.284 94.0752 167.594 93.5852C168.524 93.4652 168.774 95.0152 168.594 95.5852Z" fill="#A75E55"/>
<path d="M171.594 92.5854L167.5 97.5L168.594 95.5854C168.774 95.0154 168.524 93.4654 167.594 93.5854C168.874 91.5654 173.084 83.3754 171.594 81.5854C174.824 85.0854 172.974 88.4754 171.594 92.5854Z" fill="#B15D54"/>
<path d="M153.594 91.5854C156.714 90.9954 155.174 92.7854 155.594 93.5854C156.204 94.7254 156.294 96.5254 157.594 97.5854H156.594C153.894 94.5854 154.304 95.6454 152.594 91.5854H153.594Z" fill="#B75E52"/>
<path d="M151.594 90.5854C150.774 87.9054 149.184 84.0054 151.594 81.5854V90.5854Z" fill="#8E655F"/>
<path d="M171.594 81.5854C173.084 83.3754 168.874 91.5654 167.594 93.5854C167.284 94.0754 165.714 96.4454 165.594 96.5854C164.594 95.5954 162.284 95.9454 161.594 95.5854C161.264 95.4154 160.994 91.8754 155.594 93.5854C155.174 92.7854 156.714 90.9954 153.594 91.5854V89.5854C156.314 89.9354 157.474 85.8854 157.594 83.5854C161.744 85.3754 158.434 85.3254 159.584 89.0854L161.564 89.5654C163.834 83.7854 165.004 82.6555 171.584 81.5955L171.594 81.5854Z" fill="#C45043"/>
<path d="M157.593 83.5854C157.473 85.8854 156.313 89.9354 153.593 89.5854C153.593 87.2554 153.583 84.9154 153.603 82.5854C154.793 83.4854 156.723 83.2154 157.593 83.5854Z" fill="#D74433"/>
<path d="M161.594 95.5854C162.284 95.9454 164.594 95.5854 165.594 96.5854C165.224 97.0354 163.064 99.5154 162.864 99.5554C158.604 100.495 159.794 97.7054 159.594 97.5854C159.344 95.4654 159.474 95.3354 161.594 95.5854Z" fill="#CE4C40"/>
<path d="M155.594 93.5855C160.994 91.8755 161.264 95.4155 161.594 95.5855C159.474 95.3355 159.344 95.4655 159.594 97.5855C159.264 97.3855 158.174 97.7155 157.594 97.5855C156.294 96.5255 156.204 94.7255 155.594 93.5855Z" fill="#BD5342"/>
<path d="M135.593 123.586H134.593C134.533 123.326 131.833 119.346 131.533 119.146C128.863 117.406 106.723 117.176 103.923 118.916C94.2633 124.906 105.793 143.936 111.593 149.586V150.586C102.373 147.436 94.4533 125.516 102.033 118.516C105.753 115.086 131.153 115.206 134.073 118.616C135.563 120.356 135.193 121.766 135.593 123.586Z" fill="#EAEAE9"/>
<path d="M133.594 139.585C129.584 149.095 121.964 154.135 111.594 150.585V149.585C119.224 154.095 129.644 144.985 132.594 138.585L133.594 139.585Z" fill="#EAE9EA"/>
<path d="M133.594 139.585L132.594 138.585C134.364 134.755 135.544 127.625 134.594 123.585H135.594C136.824 129.085 135.754 134.475 133.594 139.585Z" fill="#DDE4E5"/>
<path d="M127.594 124.586C121.014 125.646 119.833 126.775 117.573 132.555L115.594 132.075C114.444 128.325 117.754 128.365 113.604 126.575C112.734 126.205 110.804 126.475 109.614 125.575C109.594 127.905 109.604 130.245 109.604 132.575V134.575H108.604C108.464 134.235 107.704 133.895 107.604 133.575V124.575C111.864 120.495 115.844 126.376 118.104 126.606C118.654 126.666 123.054 119.625 127.604 124.575L127.594 124.586Z" fill="#B65C4E"/>
<path d="M124.594 138.585C123.944 140.705 119.364 145.725 117.024 145.615C115.194 145.535 113.864 141.995 112.594 140.585H113.594C114.174 140.715 115.264 140.385 115.594 140.585C115.794 140.705 114.604 143.495 118.864 142.555C119.064 142.515 121.214 140.035 121.594 139.585C121.714 139.445 123.284 137.075 123.594 136.585C124.524 136.465 124.774 138.015 124.594 138.585Z" fill="#A75E55"/>
<path d="M127.594 135.585L123.5 140.5L124.594 138.585C124.774 138.015 124.524 136.465 123.594 136.585C124.874 134.565 129.084 126.375 127.594 124.585C130.824 128.085 128.974 131.475 127.594 135.585Z" fill="#B15D54"/>
<path d="M109.594 134.585C112.714 133.995 111.174 135.785 111.594 136.585C112.204 137.725 112.294 139.525 113.594 140.585H112.594C109.894 137.585 110.304 138.645 108.594 134.585H109.594Z" fill="#B75E52"/>
<path d="M107.594 133.585C106.774 130.905 105.184 127.005 107.594 124.585V133.585Z" fill="#8E655F"/>
<path d="M127.594 124.585C129.084 126.375 124.874 134.565 123.594 136.585C123.284 137.075 121.714 139.445 121.594 139.585C120.594 138.595 118.284 138.945 117.594 138.585C117.264 138.415 116.994 134.875 111.594 136.585C111.174 135.785 112.714 133.995 109.594 134.585V132.585C112.314 132.935 113.474 128.885 113.594 126.585C117.744 128.375 114.434 128.325 115.584 132.085L117.564 132.565C119.834 126.785 121.004 125.655 127.584 124.595L127.594 124.585Z" fill="#C45043"/>
<path d="M113.593 126.585C113.473 128.885 112.313 132.935 109.593 132.585C109.593 130.255 109.583 127.915 109.603 125.585C110.793 126.485 112.723 126.215 113.593 126.585Z" fill="#D74433"/>
<path d="M117.594 138.585C118.284 138.945 120.594 138.585 121.594 139.585C121.224 140.035 119.064 142.515 118.864 142.555C114.604 143.495 115.794 140.705 115.594 140.585C115.344 138.465 115.474 138.335 117.594 138.585Z" fill="#CE4C40"/>
<path d="M111.594 136.586C116.994 134.876 117.264 138.416 117.594 138.586C115.474 138.336 115.344 138.466 115.594 140.586C115.264 140.386 114.174 140.716 113.594 140.586C112.294 139.526 112.204 137.726 111.594 136.586Z" fill="#BD5342"/>
<path d="M184.593 145.586H183.593C183.533 145.326 180.833 141.346 180.533 141.146C177.863 139.406 155.723 139.176 152.923 140.916C143.263 146.906 154.793 165.936 160.593 171.586V172.586C151.373 169.436 143.453 147.516 151.033 140.516C154.753 137.086 180.153 137.206 183.073 140.616C184.563 142.356 184.193 143.766 184.593 145.586Z" fill="#EAEAE9"/>
<path d="M182.594 161.585C178.584 171.095 170.964 176.135 160.594 172.585V171.585C168.224 176.095 178.644 166.985 181.594 160.585L182.594 161.585Z" fill="#EAE9EA"/>
<path d="M182.594 161.585L181.594 160.585C183.364 156.755 184.544 149.625 183.594 145.585H184.594C185.824 151.085 184.754 156.475 182.594 161.585Z" fill="#DDE4E5"/>
<path d="M176.594 146.586C170.014 147.646 168.833 148.775 166.573 154.555L164.594 154.075C163.444 150.325 166.754 150.365 162.604 148.575C161.734 148.205 159.804 148.475 158.614 147.575C158.594 149.905 158.604 152.245 158.604 154.575V156.575H157.604C157.464 156.235 156.704 155.895 156.604 155.575V146.575C160.864 142.495 164.844 148.376 167.104 148.606C167.654 148.666 172.054 141.625 176.604 146.575L176.594 146.586Z" fill="#B65C4E"/>
<path d="M173.594 160.585C172.944 162.705 168.364 167.725 166.024 167.615C164.194 167.535 162.864 163.995 161.594 162.585H162.594C163.174 162.715 164.264 162.385 164.594 162.585C164.794 162.705 163.604 165.495 167.864 164.555C168.064 164.515 170.214 162.035 170.594 161.585C170.714 161.445 172.284 159.075 172.594 158.585C173.524 158.465 173.774 160.015 173.594 160.585Z" fill="#A75E55"/>
<path d="M176.594 157.585L172.5 162.5L173.594 160.585C173.774 160.015 173.524 158.465 172.594 158.585C173.874 156.565 178.084 148.375 176.594 146.585C179.824 150.085 177.974 153.475 176.594 157.585Z" fill="#B15D54"/>
<path d="M158.594 156.585C161.714 155.995 160.174 157.785 160.594 158.585C161.204 159.725 161.294 161.525 162.594 162.585H161.594C158.894 159.585 159.304 160.645 157.594 156.585H158.594Z" fill="#B75E52"/>
<path d="M156.594 155.585C155.774 152.905 154.184 149.005 156.594 146.585V155.585Z" fill="#8E655F"/>
<path d="M176.594 146.585C178.084 148.375 173.874 156.565 172.594 158.585C172.284 159.075 170.714 161.445 170.594 161.585C169.594 160.595 167.284 160.945 166.594 160.585C166.264 160.415 165.994 156.875 160.594 158.585C160.174 157.785 161.714 155.995 158.594 156.585V154.585C161.314 154.935 162.474 150.885 162.594 148.585C166.744 150.375 163.434 150.325 164.584 154.085L166.564 154.565C168.834 148.785 170.004 147.655 176.584 146.595L176.594 146.585Z" fill="#C45043"/>
<path d="M162.593 148.585C162.473 150.885 161.313 154.935 158.593 154.585C158.593 152.255 158.583 149.915 158.603 147.585C159.793 148.485 161.723 148.215 162.593 148.585Z" fill="#D74433"/>
<path d="M166.594 160.585C167.284 160.945 169.594 160.585 170.594 161.585C170.224 162.035 168.064 164.515 167.864 164.555C163.604 165.495 164.794 162.705 164.594 162.585C164.344 160.465 164.474 160.335 166.594 160.585Z" fill="#CE4C40"/>
<path d="M160.594 158.586C165.994 156.876 166.264 160.416 166.594 160.586C164.474 160.336 164.344 160.466 164.594 162.586C164.264 162.386 163.174 162.716 162.594 162.586C161.294 161.526 161.204 159.726 160.594 158.586Z" fill="#BD5342"/>
<path d="M41.5933 97.5857H40.5933C40.5333 97.3257 37.8333 93.3457 37.5333 93.1457C34.8633 91.4057 12.7233 91.1757 9.92335 92.9157C0.263345 98.9057 11.7933 117.936 17.5933 123.586V124.586C8.37333 121.436 0.453331 99.5156 8.03333 92.5156C11.7533 89.0856 37.1533 89.2057 40.0733 92.6157C41.5633 94.3557 41.1933 95.7657 41.5933 97.5857Z" fill="#EAEAE9"/>
<path d="M39.5938 113.585C35.5837 123.095 27.9637 128.135 17.5938 124.585V123.585C25.2238 128.095 35.6437 118.985 38.5938 112.585L39.5938 113.585Z" fill="#EAE9EA"/>
<path d="M39.5938 113.585L38.5938 112.585C40.3637 108.755 41.5437 101.625 40.5938 97.5854H41.5938C42.8238 103.085 41.7538 108.475 39.5938 113.585Z" fill="#DDE4E5"/>
<path d="M33.5935 98.5855C27.0135 99.6455 25.8335 100.775 23.5735 106.555L21.5935 106.075C20.4435 102.325 23.7535 102.365 19.6035 100.575C18.7335 100.205 16.8035 100.475 15.6135 99.5755C15.5935 101.905 15.6035 104.245 15.6035 106.575V108.575H14.6035C14.4635 108.235 13.7035 107.895 13.6035 107.575V98.5755C17.8635 94.4955 21.8435 100.376 24.1035 100.606C24.6535 100.666 29.0535 93.6255 33.6035 98.5755L33.5935 98.5855Z" fill="#B65C4E"/>
<path d="M30.5938 112.585C29.9438 114.705 25.3637 119.725 23.0237 119.615C21.1937 119.535 19.8637 115.995 18.5938 114.585H19.5938C20.1737 114.715 21.2637 114.385 21.5938 114.585C21.7938 114.705 20.6038 117.495 24.8638 116.555C25.0638 116.515 27.2138 114.035 27.5938 113.585C27.7137 113.445 29.2837 111.075 29.5938 110.585C30.5238 110.465 30.7738 112.015 30.5938 112.585Z" fill="#A75E55"/>
<path d="M33.5938 109.585L29.5 114.5L30.5938 112.585C30.7738 112.015 30.5238 110.465 29.5938 110.585C30.8737 108.565 35.0838 100.375 33.5938 98.5854C36.8238 102.085 34.9737 105.475 33.5938 109.585Z" fill="#B15D54"/>
<path d="M15.5938 108.585C18.7137 107.995 17.1738 109.785 17.5938 110.585C18.2038 111.725 18.2938 113.525 19.5938 114.585H18.5938C15.8937 111.585 16.3038 112.645 14.5938 108.585H15.5938Z" fill="#B75E52"/>
<path d="M13.5939 107.585C12.7739 104.905 11.1839 101.005 13.5939 98.5854V107.585Z" fill="#8E655F"/>
<path d="M33.5938 98.5854C35.0838 100.375 30.8737 108.565 29.5938 110.585C29.2837 111.075 27.7137 113.445 27.5938 113.585C26.5938 112.595 24.2837 112.945 23.5938 112.585C23.2637 112.415 22.9938 108.875 17.5938 110.585C17.1738 109.785 18.7137 107.995 15.5938 108.585V106.585C18.3138 106.935 19.4738 102.885 19.5938 100.585C23.7438 102.375 20.4337 102.325 21.5837 106.085L23.5637 106.565C25.8337 100.785 27.0037 99.6555 33.5837 98.5955L33.5938 98.5854Z" fill="#C45043"/>
<path d="M19.5933 100.585C19.4733 102.885 18.3133 106.935 15.5933 106.585C15.5933 104.255 15.5833 101.915 15.6033 99.5854C16.7933 100.485 18.7233 100.215 19.5933 100.585Z" fill="#D74433"/>
<path d="M23.5937 112.585C24.2837 112.945 26.5937 112.585 27.5937 113.585C27.2237 114.035 25.0637 116.515 24.8637 116.555C20.6037 117.495 21.7937 114.705 21.5937 114.585C21.3437 112.465 21.4737 112.335 23.5937 112.585Z" fill="#CE4C40"/>
<path d="M17.5938 110.586C22.9938 108.876 23.2637 112.416 23.5938 112.586C21.4738 112.336 21.3438 112.466 21.5938 114.586C21.2637 114.386 20.1737 114.716 19.5938 114.586C18.2938 113.526 18.2038 111.726 17.5938 110.586Z" fill="#BD5342"/>
<path d="M90.5933 159.586H89.5933C89.5333 159.326 86.8333 155.346 86.5333 155.146C83.8633 153.406 61.7233 153.176 58.9233 154.916C49.2633 160.906 60.7933 179.936 66.5933 185.586V186.586C57.3733 183.436 49.4533 161.516 57.0333 154.516C60.7533 151.086 86.1533 151.206 89.0733 154.616C90.5633 156.356 90.1933 157.766 90.5933 159.586Z" fill="#EAEAE9"/>
<path d="M88.5938 175.585C84.5837 185.095 76.9637 190.135 66.5938 186.585V185.585C74.2238 190.095 84.6437 180.985 87.5938 174.585L88.5938 175.585Z" fill="#EAE9EA"/>
<path d="M88.5938 175.585L87.5938 174.585C89.3637 170.755 90.5437 163.625 89.5938 159.585H90.5938C91.8238 165.085 90.7538 170.475 88.5938 175.585Z" fill="#DDE4E5"/>
<path d="M82.5935 160.586C76.0135 161.646 74.8335 162.775 72.5735 168.555L70.5935 168.075C69.4435 164.325 72.7535 164.365 68.6035 162.575C67.7335 162.205 65.8035 162.475 64.6135 161.575C64.5935 163.905 64.6035 166.245 64.6035 168.575V170.575H63.6035C63.4635 170.235 62.7035 169.895 62.6035 169.575V160.575C66.8635 156.495 70.8435 162.376 73.1035 162.606C73.6535 162.666 78.0535 155.625 82.6035 160.575L82.5935 160.586Z" fill="#B65C4E"/>
<path d="M79.5938 174.585C78.9438 176.705 74.3637 181.725 72.0237 181.615C70.1937 181.535 68.8637 177.995 67.5938 176.585H68.5938C69.1737 176.715 70.2637 176.385 70.5938 176.585C70.7938 176.705 69.6038 179.495 73.8638 178.555C74.0638 178.515 76.2138 176.035 76.5938 175.585C76.7137 175.445 78.2837 173.075 78.5938 172.585C79.5238 172.465 79.7738 174.015 79.5938 174.585Z" fill="#A75E55"/>
<path d="M82.5938 171.585L78.5 176.5L79.5938 174.585C79.7738 174.015 79.5238 172.465 78.5938 172.585C79.8737 170.565 84.0838 162.375 82.5938 160.585C85.8238 164.085 83.9737 167.475 82.5938 171.585Z" fill="#B15D54"/>
<path d="M64.5938 170.585C67.7137 169.995 66.1738 171.785 66.5938 172.585C67.2038 173.725 67.2938 175.525 68.5938 176.585H67.5938C64.8937 173.585 65.3038 174.645 63.5938 170.585H64.5938Z" fill="#B75E52"/>
<path d="M62.5939 169.585C61.7739 166.905 60.1839 163.005 62.5939 160.585V169.585Z" fill="#8E655F"/>
<path d="M82.5938 160.585C84.0838 162.375 79.8737 170.565 78.5938 172.585C78.2837 173.075 76.7137 175.445 76.5938 175.585C75.5938 174.595 73.2837 174.945 72.5938 174.585C72.2637 174.415 71.9938 170.875 66.5938 172.585C66.1738 171.785 67.7137 169.995 64.5938 170.585V168.585C67.3138 168.935 68.4738 164.885 68.5938 162.585C72.7438 164.375 69.4337 164.325 70.5837 168.085L72.5637 168.565C74.8337 162.785 76.0037 161.655 82.5837 160.595L82.5938 160.585Z" fill="#C45043"/>
<path d="M68.5933 162.585C68.4733 164.885 67.3133 168.935 64.5933 168.585C64.5933 166.255 64.5833 163.915 64.6033 161.585C65.7933 162.485 67.7233 162.215 68.5933 162.585Z" fill="#D74433"/>
<path d="M72.5937 174.585C73.2837 174.945 75.5937 174.585 76.5937 175.585C76.2237 176.035 74.0637 178.515 73.8637 178.555C69.6037 179.495 70.7937 176.705 70.5937 176.585C70.3437 174.465 70.4737 174.335 72.5937 174.585Z" fill="#CE4C40"/>
<path d="M66.5938 172.586C71.9938 170.876 72.2637 174.416 72.5938 174.586C70.4738 174.336 70.3438 174.466 70.5938 176.586C70.2637 176.386 69.1737 176.716 68.5938 176.586C67.2938 175.526 67.2038 173.726 66.5938 172.586Z" fill="#BD5342"/>
<path d="M139.374 40.848C138.344 39.368 135.144 33.208 135.414 31.588C136.304 26.308 141.474 31.658 143.374 31.848C143.334 36.368 142.184 37.508 147.364 36.858C147.794 36.438 146.974 32.068 147.364 30.848C150.034 30.828 152.624 30.018 155.304 30.908C156.824 32.908 152.114 38.068 151.364 39.848C151.244 40.128 151.484 40.568 151.364 40.848C148.184 40.338 149.844 41.818 149.364 42.848C145.664 50.808 142.484 45.328 139.364 40.848H139.374Z" fill="#C84C3E"/>
<path d="M147.374 30.8481C146.974 32.0581 147.794 36.4382 147.374 36.8582C142.194 37.5082 143.334 36.3781 143.384 31.8481C143.714 31.8781 144.054 31.8481 144.384 31.8481C145.504 31.8781 146.844 30.8481 147.384 30.8481H147.374Z" fill="#B95748"/>
<path d="M151.374 40.848C151.114 41.438 151.554 42.968 151.364 43.848L149.374 42.848C149.854 41.818 148.194 40.338 151.374 40.848Z" fill="#B7574C"/>
</svg>
