<svg width="111" height="136" viewBox="0 0 111 136" fill="none" xmlns="http://www.w3.org/2000/svg">
<path d="M17.991 21.0309C21.621 19.3209 22.861 18.2909 27.451 18.0009C43.001 17.0109 47.381 24.6409 55.491 36.0209C57.741 31.3709 58.481 26.111 60.801 21.351C67.781 7.06095 93.6809 -10.349 104.791 7.74097C120.711 33.671 100.601 89.141 86.191 113.741C79.201 125.681 68.841 140.381 53.021 134.521C39.101 129.361 9.83096 90.7009 3.96096 76.5809C-1.01904 64.5909 -0.859039 56.491 1.99096 44.051C4.30096 43.421 3.60096 41.0709 4.36096 39.3909C5.48096 36.9109 11.481 26.4809 13.911 24.4709C15.671 23.0109 18.511 23.801 17.981 21.061L17.991 21.0309ZM95.9809 43.0309C96.7209 42.2409 98.9109 24.2109 99.0409 21.5709C99.1009 20.2509 99.271 15.051 97.491 15.051C95.511 15.051 96.1009 23.2709 94.9809 25.0309C94.4209 25.4509 89.381 19.031 87.001 20.041C85.901 21.041 93.171 27.5209 93.761 29.7709C94.621 33.0509 93.811 37.931 94.001 41.551C94.081 43.161 94.811 44.301 95.991 43.041L95.9809 43.0309ZM80.881 23.1309C74.951 19.2509 79.1109 35.7809 77.9809 37.0209C76.5809 38.5609 76.221 36.581 75.751 35.741C74.151 32.941 73.061 28.2709 68.991 28.0309C68.921 29.8209 68.921 31.6109 69.111 33.4009C69.301 35.1909 71.581 48.3509 71.991 49.0309C72.071 49.1609 74.8709 49.1309 74.9809 49.0309C75.6009 48.4109 73.041 40.031 73.991 38.041C75.741 38.071 75.3209 40.851 76.4709 42.051C81.0409 46.861 81.481 36.321 80.991 33.041L84.9609 41.561C85.7809 43.231 87.6309 43.0509 87.9809 41.5309C88.3609 39.8609 81.791 23.7409 80.881 23.1509V23.1309ZM19.991 37.0309C17.001 37.9009 6.12097 40.421 5.00097 42.541C3.36097 45.661 10.771 42.7809 10.991 43.0309C11.581 46.2809 13.011 68.9709 15.501 69.0109C17.381 67.7309 17.051 66.6009 16.911 64.6609C16.611 60.3009 12.131 43.9009 14.981 41.5209C17.001 39.8309 21.191 41.601 19.991 37.041V37.0309ZM33.971 40.0309C33.851 39.9409 31.091 39.9109 31.001 40.0309C30.441 40.7109 31.741 51.411 31.981 53.551C32.101 54.581 31.941 58.0209 33.491 58.0209C36.141 58.0209 34.951 40.841 33.971 40.041V40.0309ZM45.9809 47.0309C44.9609 35.8209 37.381 41.771 38.441 50.561C38.751 53.131 44.0609 56.5109 40.9809 61.0309L35.991 60.0309C32.461 63.5409 46.0709 68.221 44.9809 57.621C44.5709 53.601 36.971 45.0909 43.971 44.0309L45.9809 47.0309ZM66.9109 43.1309C65.9609 41.6409 61.151 41.611 60.201 44.731C58.081 51.691 63.601 52.751 63.991 54.541C64.811 58.311 58.361 55.381 58.001 57.541C57.151 62.611 70.941 63.1409 66.321 52.2609C65.361 50.0009 62.1709 51.011 61.9609 46.551C61.8009 43.251 65.211 46.1909 66.991 46.0309C66.881 45.1509 67.2709 43.6909 66.9109 43.1309ZM25.981 43.0309C22.951 40.5909 24.171 50.2409 23.991 51.0209L19.001 44.0209C18.841 46.9109 19.231 59.0909 21.501 60.0109C25.971 61.8309 22.311 55.8109 23.001 53.0209C25.991 53.9709 23.911 59.4009 27.991 59.0209C28.371 56.7709 26.911 43.7809 25.981 43.0309ZM54.991 46.0309C54.361 46.1309 51.991 45.8809 51.991 46.0309V62.0309C51.991 62.1809 54.991 62.1809 54.991 62.0309V46.0309ZM96.991 47.0309C95.051 44.8009 91.3309 54.4709 91.9809 56.0209C91.4309 56.7209 83.871 48.021 82.991 52.541C82.401 55.571 89.4909 59.8009 89.8509 61.6609C90.1509 63.2409 84.351 73.3509 86.001 75.0109C86.261 75.2709 88.451 75.281 89.081 74.421C89.931 73.261 93.801 61.3909 94.491 59.0109C94.991 57.2709 97.391 47.4809 96.991 47.0209V47.0309ZM75.551 72.621C78.061 68.971 83.701 64.3009 80.501 59.0209C78.441 55.6209 70.261 58.671 69.921 61.551C71.381 64.691 71.231 84.141 71.991 85.041C72.131 85.211 74.1809 84.931 74.9809 85.041C75.6309 81.461 73.661 77.9309 73.881 74.5109C73.991 72.7209 75.2109 73.111 75.5409 72.621H75.551ZM29.901 67.101C29.561 66.891 27.101 66.9309 26.991 67.0309C26.531 67.4909 28.981 77.9009 27.981 80.0209C21.931 81.5109 24.021 71.5909 22.981 70.0209C22.901 69.9009 20.091 69.9209 19.991 70.0209C19.241 70.8109 22.471 89.101 23.031 91.481C23.801 94.751 26.951 94.6709 27.001 93.5109C27.171 89.8409 23.171 83.7509 28.491 82.0309C30.061 84.7509 29.641 88.161 30.491 91.061C31.011 92.831 30.7109 93.4009 32.9809 93.0209C32.4209 89.5709 31.011 67.791 29.901 67.101ZM60.991 95.0309C61.871 94.1009 59.1309 86.651 60.1509 83.681C60.8709 81.601 66.141 81.0509 66.081 75.5009C66.061 73.2909 62.831 69.0709 60.701 69.2009C60.151 69.2309 55.301 70.9009 55.131 71.1409C53.681 73.2109 58.361 91.0509 58.001 95.0209C58.811 94.9009 60.821 95.2009 60.991 95.0209V95.0309ZM42.191 85.241C42.611 84.641 45.511 83.8709 46.371 84.0809C48.871 84.7109 47.431 89.161 48.461 91.051C49.421 92.821 51.701 91.701 51.991 90.481C52.281 89.261 45.861 71.671 44.471 71.041C43.741 70.711 42.581 70.711 41.931 71.621C40.431 73.691 37.821 89.4509 37.971 92.5209C38.051 94.1209 38.8309 95.3009 39.9809 94.0209C40.4009 93.5509 41.671 85.991 42.191 85.231V85.241ZM81.991 81.0309C81.571 81.6809 81.991 94.1409 81.991 96.5309C81.991 99.7109 90.731 98.2609 91.991 95.5209C91.011 89.6209 84.591 98.5209 83.931 92.5309C83.381 87.4709 89.931 90.311 90.001 86.541L84.001 84.541L89.991 80.0309C88.641 79.7309 82.361 80.4609 81.991 81.0309ZM78.9809 96.0309C79.2109 92.4109 76.9009 89.8709 74.0309 92.5709C70.5909 95.8109 69.531 108.411 74.681 109.901C80.671 111.631 84.831 98.6809 76.001 107.031C75.981 105.261 74.2209 104.131 73.9709 102.451C73.7809 101.171 75.641 95.2909 76.001 95.0209C76.221 94.8609 78.5609 96.4309 78.9709 96.0209L78.9809 96.0309ZM67.9809 115.031C68.1709 113.301 67.9009 111.671 67.5309 109.981C67.1209 108.141 62.681 96.0509 60.001 98.0309C59.221 98.6009 55.631 116.151 57.001 117.021C61.521 119.911 59.451 110.041 61.001 109.031C64.451 106.791 65.2109 114.551 67.9809 115.031ZM39.991 118.031C45.021 117.931 41.271 113.661 42.131 110.751C42.691 108.861 45.531 108.201 45.991 105.501C47.001 99.5809 43.0809 98.3909 37.9809 99.0309L39.991 118.031ZM53.001 120.031C52.751 116.081 52.471 111.541 51.861 107.661C51.621 106.111 50.871 99.061 49.491 99.051C47.581 99.031 48.411 102.091 48.471 103.041C48.651 106.351 49.091 121.251 50.151 122.861C50.631 123.591 53.141 123.831 54.201 123.791C55.061 123.751 60.681 123.481 59.991 121.551C57.871 118.401 56.1709 119.041 53.0109 120.031H53.001Z" fill="#D21E0B"/>
<path d="M17.991 21.031C18.521 23.771 15.681 22.981 13.921 24.441C11.491 26.451 5.49097 36.881 4.37097 39.361C3.61097 41.041 4.30098 43.391 2.00098 44.021C4.45098 33.331 7.60098 25.931 18.001 21.021L17.991 21.031Z" fill="#D34944"/>
<path d="M80.8812 23.1309C81.7912 23.7309 88.3711 39.8509 87.9811 41.5109C87.6311 43.0309 85.7911 43.2109 84.9611 41.5409L80.9911 33.0209C81.4711 36.3009 81.0411 46.8409 76.4711 42.0309C75.3311 40.8309 75.7511 38.0509 73.9911 38.0209C73.0311 40.0109 75.6011 48.3909 74.9811 49.0109C74.8711 49.1209 72.0711 49.1509 71.9911 49.0109C71.5711 48.3309 69.3011 35.2709 69.1111 33.3809C68.9211 31.4909 68.9211 29.8009 68.9911 28.0109C73.0611 28.2509 74.1511 32.9109 75.7511 35.7209C76.2311 36.5609 76.5811 38.5409 77.9811 37.0009C79.1111 35.7609 74.9412 19.2309 80.8812 23.1109V23.1309Z" fill="#F2949C"/>
<path d="M29.9007 67.1007C31.0107 67.7907 32.4207 89.5807 32.9807 93.0207C30.7207 93.4107 31.0207 92.8308 30.4907 91.0608C29.6307 88.1608 30.0507 84.7407 28.4907 82.0307C23.1707 83.7507 27.1707 89.8407 27.0007 93.5107C26.9507 94.6707 23.8007 94.7508 23.0307 91.4808C22.4707 89.1008 19.2507 70.8107 19.9907 70.0207C20.0907 69.9107 22.9007 69.8907 22.9807 70.0207C24.0207 71.5907 21.9307 81.5107 27.9807 80.0207C28.9807 77.9007 26.5307 67.4907 26.9907 67.0307C27.0907 66.9307 29.5607 66.8907 29.9007 67.1007Z" fill="#F5949C"/>
<path d="M42.1919 85.2409C41.6719 85.9909 40.4019 93.5609 39.9819 94.0309C38.8319 95.3109 38.0519 94.1209 37.9719 92.5309C37.8119 89.4709 40.4219 73.7008 41.9319 71.6308C42.5919 70.7308 43.7419 70.7209 44.4719 71.0509C45.8619 71.6809 52.2719 89.2709 51.9919 90.4909C51.7119 91.7109 49.4219 92.8309 48.4619 91.0609C47.4319 89.1709 48.8719 84.7209 46.3719 84.0909C45.5119 83.8709 42.6119 84.6408 42.1919 85.2508V85.2409Z" fill="#F3929C"/>
<path d="M96.9918 47.0307C97.3918 47.4907 94.9918 57.2807 94.4918 59.0207C93.8018 61.4007 89.9319 73.2707 89.0819 74.4307C88.4519 75.2907 86.2619 75.2807 86.0019 75.0207C84.3519 73.3507 90.1518 63.2407 89.8518 61.6707C89.5018 59.8107 82.4018 55.5807 82.9918 52.5507C83.8718 48.0307 91.4318 56.7307 91.9818 56.0307C91.3218 54.4807 95.0418 44.8107 96.9918 47.0407V47.0307Z" fill="#F09298"/>
<path d="M60.9912 95.031C60.8112 95.221 58.8012 94.921 58.0012 95.031C58.3612 91.061 53.6712 73.221 55.1312 71.151C55.3012 70.911 60.1512 69.2409 60.7012 69.2109C62.8412 69.0809 66.0613 73.2909 66.0813 75.5109C66.1413 81.0609 60.8712 81.6009 60.1512 83.6909C59.1312 86.6609 61.8712 94.101 60.9912 95.041V95.031ZM58.0712 73.111C57.3612 74.051 58.1412 79.0309 59.4912 79.0109C61.2612 77.6509 62.5812 75.951 61.9812 73.541C61.5412 71.731 58.4812 72.561 58.0612 73.111H58.0712Z" fill="#F4969D"/>
<path d="M75.5516 72.6209C75.2216 73.1009 74.0017 72.7209 73.8917 74.5109C73.6717 77.9309 75.6416 81.4609 74.9916 85.0409C74.1916 84.9309 72.1416 85.2109 72.0016 85.0409C71.2416 84.1409 71.4016 64.7009 69.9316 61.5509C70.2616 58.6709 78.4517 55.6209 80.5117 59.0209C83.7117 64.3009 78.0616 68.9809 75.5616 72.6209H75.5516ZM73.0016 68.0309C75.5216 68.1509 81.5916 61.0709 77.4816 60.0309C73.3716 58.9909 72.3316 65.2309 73.0016 68.0309Z" fill="#F39399"/>
<path d="M19.9914 37.031C21.1914 41.591 17.0014 39.821 14.9814 41.511C12.1214 43.901 16.6114 60.291 16.9114 64.651C17.0414 66.591 17.3714 67.721 15.5014 69.001C13.0214 68.961 11.5914 46.271 10.9914 43.021C10.7714 42.771 3.36139 45.651 5.00139 42.531C6.12139 40.411 17.0014 37.891 19.9914 37.021V37.031Z" fill="#F38C8F"/>
<path d="M95.981 43.0305C94.791 44.2905 94.0711 43.1505 93.9911 41.5405C93.8111 37.9205 94.6111 33.0405 93.7511 29.7605C93.1611 27.5005 85.8911 21.0305 86.9911 20.0305C89.3711 19.0305 94.411 25.4505 94.971 25.0205C96.091 23.2605 95.501 15.0505 97.481 15.0405C99.251 15.0405 99.091 20.2405 99.031 21.5605C98.901 24.2005 96.721 42.2305 95.971 43.0205L95.981 43.0305Z" fill="#F58992"/>
<path d="M67.9819 115.031C65.2119 114.561 64.4519 106.801 61.0019 109.031C59.4519 110.041 61.5219 119.921 57.0019 117.021C55.6319 116.141 59.2219 98.6008 60.0019 98.0308C62.6919 96.0508 67.1319 108.141 67.5319 109.981C67.9019 111.671 68.1719 113.301 67.9819 115.031Z" fill="#F3979F"/>
<path d="M81.9914 81.0307C82.3514 80.4607 88.6414 79.7307 89.9914 80.0307L84.0014 84.5407L90.0014 86.5407C89.9314 90.3107 83.3814 87.4807 83.9314 92.5307C84.5914 98.5207 91.0114 89.6107 91.9914 95.5207C90.7314 98.2607 81.9914 99.7107 81.9914 96.5307C81.9914 94.1407 81.5714 81.6807 81.9914 81.0307Z" fill="#F38987"/>
<path d="M25.9813 43.0305C26.9113 43.7805 28.3713 56.7705 27.9913 59.0205C23.9213 59.4105 26.0014 53.9705 23.0014 53.0205C22.3114 55.8105 25.9714 61.8305 21.5014 60.0105C19.2314 59.0905 18.8414 46.9105 19.0014 44.0205L23.9913 51.0205C24.1713 50.2405 22.9513 40.5905 25.9813 43.0305Z" fill="#F0898F"/>
<path d="M53.001 120.031C56.171 119.031 57.871 118.401 59.981 121.551C60.671 123.471 55.061 123.751 54.191 123.791C53.131 123.841 50.631 123.601 50.141 122.861C49.081 121.261 48.641 106.351 48.461 103.041C48.411 102.091 47.571 99.0309 49.481 99.0509C50.861 99.0609 51.611 106.111 51.851 107.661C52.461 111.541 52.731 116.081 52.991 120.031H53.001Z" fill="#EC8587"/>
<path d="M45.9813 47.031L43.9713 44.031C36.9713 45.091 44.5713 53.5911 44.9813 57.6211C46.0713 68.2211 32.4513 63.551 35.9913 60.031L40.9813 61.031C44.0613 56.511 38.7613 53.1211 38.4413 50.5611C37.3713 41.7711 44.9513 35.821 45.9813 47.031Z" fill="#F68D90"/>
<path d="M78.9806 96.0306C78.5706 96.4306 76.2307 94.8606 76.0107 95.0306C75.6407 95.3006 73.7906 101.181 73.9806 102.461C74.2306 104.141 75.9807 105.271 76.0107 107.041C84.8407 98.6906 80.6807 111.641 74.6907 109.911C69.5407 108.421 70.6006 95.8206 74.0406 92.5806C76.9006 89.8806 79.2207 92.4206 78.9907 96.0406L78.9806 96.0306Z" fill="#F5949C"/>
<path d="M66.9107 43.1308C67.2707 43.6908 66.8807 45.1509 66.9907 46.0309C65.2107 46.1909 61.8107 43.2509 61.9607 46.5509C62.1707 51.0109 65.3608 50.0008 66.3208 52.2608C70.9408 63.1408 57.1508 62.6109 58.0008 57.5409C58.3608 55.3809 64.8207 58.3109 63.9907 54.5409C63.6007 52.7509 58.0808 51.6809 60.2008 44.7309C61.1508 41.6109 65.9607 41.6408 66.9107 43.1308Z" fill="#F09197"/>
<path d="M39.9915 118.031L37.9814 99.0308C43.0814 98.3808 47.0115 99.5808 45.9915 105.501C45.5315 108.201 42.6915 108.861 42.1315 110.751C41.2715 113.671 45.0215 117.931 39.9915 118.031ZM39.9915 107.031C44.2015 107.211 44.2015 100.861 39.9915 101.041V107.031Z" fill="#F38988"/>
<path d="M33.9711 40.031C34.9611 40.831 36.1411 58.001 33.4911 58.011C31.9411 58.011 32.0911 54.571 31.9811 53.541C31.7411 51.401 30.4411 40.701 31.0011 40.021C31.0911 39.911 33.8611 39.931 33.9711 40.021V40.031Z" fill="#F27F80"/>
<path d="M54.9912 46.0307V62.0307C54.9912 62.1807 51.9912 62.1807 51.9912 62.0307V46.0307C51.9912 45.8807 54.3612 46.1307 54.9912 46.0307Z" fill="#F68794"/>
<path d="M58.0713 73.1107C58.4813 72.5707 61.5413 71.7307 61.9913 73.5407C62.5813 75.9507 61.2713 77.6507 59.5013 79.0107C58.1513 79.0307 57.3713 74.0507 58.0813 73.1107H58.0713Z" fill="#CB3334"/>
<path d="M73.0006 68.0307C72.3306 65.2307 73.2506 58.9707 77.4806 60.0307C81.7106 61.0907 75.5206 68.1507 73.0006 68.0307Z" fill="#CC312B"/>
<path d="M39.9912 107.031V101.041C44.2012 100.861 44.2012 107.211 39.9912 107.031Z" fill="#C33733"/>
</svg>
