<svg width="229" height="295" viewBox="0 0 229 295" fill="none" xmlns="http://www.w3.org/2000/svg">
<path d="M228.027 240C228.045 244.4 230.207 277.675 228.027 295H0.904868C-0.253363 291.975 0.0904868 263.925 0 240H228.027Z" fill="#434343"/>
<path d="M228.027 0C228.045 1.04 230.207 8.905 228.027 13H0.904868C-0.253363 12.285 0.0904868 5.655 0 0H228.027Z" fill="#434343"/>
<path d="M0 1.23074C0.88 1.20786 7.535 -1.52677 11 1.23074L11 288.424C10.395 289.888 4.785 289.453 0 289.568L0 1.23074Z" fill="#434343"/>
<path d="M218 1.23074C218.88 1.20786 225.535 -1.52677 229 1.23074L229 288.424C228.395 289.888 222.785 289.453 218 289.568L218 1.23074Z" fill="#434343"/>
</svg>
