<svg width="229" height="259" viewBox="0 0 229 259" fill="none" xmlns="http://www.w3.org/2000/svg">
<path d="M228.027 190C228.045 195.52 230.207 237.265 228.027 259H0.904868C-0.253363 255.205 0.0904868 220.015 0 190H228.027Z" fill="#F0E9D5"/>
<path d="M228.027 0C228.045 0.96 230.207 8.22 228.027 12H0.904868C-0.253363 11.34 0.0904868 5.22 0 0H228.027Z" fill="#F0E9D5"/>
<path d="M0 1.10075C0.88 1.08028 7.535 -1.36567 11 1.10075L11 257.977C10.395 259.287 4.785 258.898 0 259L0 1.10075Z" fill="#F0E9D5"/>
<path d="M218 1.10075C218.88 1.08028 225.535 -1.36567 229 1.10075L229 257.977C228.395 259.287 222.785 258.898 218 259L218 1.10075Z" fill="#F0E9D5"/>
</svg>
