<svg width="229" height="290" viewBox="0 0 229 290" fill="none" xmlns="http://www.w3.org/2000/svg">
<path d="M228.027 233C228.045 237.56 230.207 272.045 228.027 290H0.904868C-0.253363 286.865 0.0904868 257.795 0 233H228.027Z" fill="#FFF7E1"/>
<path d="M228.027 0C228.045 0.905489 230.207 7.75325 228.027 11.3186H0.904868C-0.253363 10.6961 0.0904868 4.9236 0 0H228.027Z" fill="#FFF7E1"/>
<path d="M0 1.23074C0.88 1.20786 7.535 -1.52677 11 1.23074L11 288.424C10.395 289.888 4.785 289.453 0 289.568L0 1.23074Z" fill="#FFF7E1"/>
<path d="M218 1.23074C218.88 1.20786 225.535 -1.52677 229 1.23074L229 288.424C228.395 289.888 222.785 289.453 218 289.568L218 1.23074Z" fill="#FFF7E1"/>
</svg>
