<svg width="518" height="167" viewBox="0 0 518 167" fill="none" xmlns="http://www.w3.org/2000/svg">
<path d="M99 131.01C98.63 136.07 99.3 141.03 100 146L12.03 152.98L0 6L88.01 0C88.62 9.3 89.61 18.69 90.01 28C90.12 30.49 89.14 34.07 91.01 36C91.03 38.33 91.01 40.67 91.01 43C91 52.08 90.15 60.98 90.01 70C89.88 78.31 89.98 86.69 90.01 95C90.01 95.67 90.01 96.33 90.01 97C90.02 99 89.99 101 90.01 103C90.04 106.26 89.19 125.19 90.01 126.01C91.59 127.58 99.07 122.36 99.02 131L99 131.01ZM44 35.01V18.51C44 16.25 41.34 14.86 39.43 16.95C36.44 23.66 14.14 40.14 13.95 45.48C13.92 46.32 13.99 47.17 14 48.01C18.5 47.19 22.68 46.07 26.94 48.57C33.52 67.46 30.64 90.68 34.08 110.43C35.88 120.75 41.25 129.89 52.46 131.05C62.84 132.13 79.58 128.81 76.99 115.01C66.85 118.59 54.68 120.85 50.76 107.75C45.91 91.51 49.4 65.72 44.95 48.46C45 46.76 44.87 45.95 46.67 45.19C50.95 43.4 69.16 43.9 71.05 42.57C72.66 41.44 72.16 34.84 71.11 33.59C68.96 31.04 48.38 36.46 43.99 35.01H44Z" fill="#9A2C18"/>
<path d="M322 42.0098L425.01 51.9998C423.76 65.2098 428 162.25 422.07 166.58L310.66 156.85L309.09 155.38C311.67 150.08 308.72 142.03 309.01 138.01C309.4 132.49 311.37 125.79 312.01 119.01C312.13 117.77 312.82 116.01 313.01 114.01C315.19 90.6998 315.31 63.1198 322.01 42.0098H322ZM420 65.0098C412.89 65.8698 399.65 60.4198 393.43 63.9398C386.78 67.6998 376.41 106.32 370.51 105.01C363.97 97.2398 365.87 66.2398 361.47 61.0398C358.67 57.7398 338.98 57.6298 333.96 58.4798L334.86 81.3798C331.86 102.52 319.14 122.1 322.47 144.05C323.78 146.12 345.78 148.7 346.91 145.39C347.39 143.98 342.32 128.5 341.95 124.56C341.58 120.62 341.92 95.8498 345.51 95.0198C349.1 94.1898 349.81 108.49 350.47 111.03C351.71 115.8 355.78 131.96 359.92 133.57C362.55 134.59 377.05 136.18 378.58 134.08C380.27 129.21 374.99 125.88 376.4 120.99C376.76 119.73 388.77 100.76 390.26 98.7798C391.08 97.6998 390.99 96.5598 392.98 97.0198C395.64 114.53 391.33 132.45 387.09 149.38C388.15 152.02 409.92 153.36 411.58 152.12C416.84 148.18 412.77 116.28 412.97 108.57C413.34 93.7398 415.71 79.1798 420 65.0298V65.0098Z" fill="#D7D5C4"/>
<path d="M91.0004 34.0102C94.6204 32.8902 93.3104 27.4602 94.4604 25.9702C96.9204 22.7702 165.55 27.0502 175.01 27.0102C174.44 30.9402 176.01 34.6602 176.1 38.5202C176.67 63.4002 177.68 89.1402 176 114.02C172.87 112.7 174.66 109.24 173.49 107.03C172.89 105.9 169.3 104.97 169.04 103.42C168.74 101.68 171.71 100.58 171.75 99.5502C171.76 99.2502 170.37 97.7102 170.05 96.4602C169.18 93.1202 171.95 90.6302 165.97 92.4802C164.03 93.7602 166.03 94.8902 166.01 95.0202C162.33 118.58 142.44 118.72 122.59 116.14L121.01 76.0202H138.51C139.12 76.0202 143.85 78.2902 144.46 79.0702C145.33 80.1902 146.47 91.8602 148.53 88.0402C150.59 84.2202 149.91 66.3702 151.01 61.0302C145.76 62.9202 148.36 69.0502 142.24 71.7502C139.41 73.0002 123.29 73.8802 121.02 73.0302V35.0302H144.52C156.13 35.0302 160.08 49.9902 164.02 58.0302C167.37 56.8802 165.02 55.2402 165.02 55.0302C165.02 54.7002 165.02 54.3602 165.02 54.0302C165.05 49.3302 165.85 43.3602 164.02 39.0302C163.96 38.3802 164.14 37.6002 164.02 37.0302C164.01 35.4402 164.5 32.4602 163.08 31.4702C159.44 28.9002 106.75 32.5202 98.0104 31.0402C98.1804 32.5702 97.2504 34.0502 99.0104 35.0302C99.3704 35.2302 101.18 34.9702 102.01 35.0302C103.55 37.1402 107.7 34.7402 108.87 37.6702C109.28 38.6902 109.28 58.3802 108.87 59.3902C107.81 62.0502 104.2 60.3002 104 61.5402C118.48 74.8502 97.5904 68.9402 94.4604 75.0302C93.2104 77.4602 95.3604 79.9602 95.0104 82.4402C94.7904 84.0302 93.1404 85.2402 92.9604 87.4802C92.3904 94.8202 94.4404 101.63 92.0004 109.02L90.0104 103.03C89.9904 101.03 90.0204 99.0302 90.0104 97.0302L91.0004 95.5402L90.0104 95.0302C89.9804 86.7202 89.8804 78.3402 90.0104 70.0302C91.8404 61.4202 93.3104 51.7502 91.0104 43.0302C91.0104 40.7002 91.0304 38.3602 91.0104 36.0302C91.0104 35.3602 91.0104 34.7002 91.0104 34.0302L91.0004 34.0102Z" fill="#EDE9E3"/>
<path d="M309 138.01L237 143.01L240 30L320.99 29.02C320.66 32.76 323.1 38.54 322 42.01C315.3 63.12 315.18 90.7 313 114.01C311.09 114.09 309.07 114.35 307.41 113.1C302.71 109.56 305.96 73 304.88 64.63C300.95 34.04 252.36 37.47 242.96 62.58L258.99 72C258.32 65.48 263.01 48.24 269.25 45.77C285.52 39.33 283.59 64.6 283.59 74.04C268.88 80.63 225.88 90.37 241.57 114.94C251.26 130.11 273.49 122.15 282.51 110.02C284.34 109.49 285.68 115.99 287.44 118.06C294.36 126.19 303.87 123.01 311.99 119.01C311.35 125.79 309.38 132.49 308.99 138.01H309Z" fill="#ECBBBA"/>
<path d="M518 32.0098L516.56 133.08L428.93 133.58C426.6 131.95 426.85 92.3398 426.95 86.4798C427.07 78.9298 428.7 69.7097 429.02 62.5397C429.42 53.8097 425.65 46.2797 433 40.5297C428.72 40.2697 427.35 35.1798 430.23 32.2598C432.54 29.9098 475.25 30.8698 481.49 31.0198C484.07 31.0798 486.14 32.7697 488.45 32.8497C492.4 32.9897 516.39 30.4597 517.99 32.0297L518 32.0098ZM432 94.0098C438.21 125.12 480.67 133.76 503 113.01C504.26 111.84 504.79 111.48 506 110.01C510.74 104.24 513.34 99.4598 515 92.0098C515.54 89.5898 516.06 89.1398 516 86.0098C522.32 13.4997 413.68 22.4597 432 94.0098Z" fill="#DFDFD3"/>
<path d="M110 115.01C107.04 118.41 98.2502 114.69 98.0002 120.01H165C164.67 112.95 169.64 102.07 169.03 95.5198C168.75 92.5098 167.4 94.1798 166 95.0098C166.02 94.8798 164.02 93.7598 165.96 92.4698C171.95 90.6198 169.17 93.0998 170.04 96.4498C170.36 97.6898 171.75 99.2398 171.74 99.5398C171.7 100.57 168.73 101.68 169.03 103.41C169.29 104.96 172.89 105.89 173.48 107.02C174.65 109.24 172.86 112.69 175.99 114.01C175.77 117.35 177.24 127.76 174.35 128.87L99.5102 126C98.4802 126.28 99.0902 129.72 98.9902 131.02C99.0402 122.38 91.5602 127.6 89.9802 126.03C89.1702 125.22 90.0202 106.28 89.9802 103.02L91.9702 109.01C94.4102 101.61 92.3602 94.8098 92.9302 87.4698C93.1002 85.2298 94.7602 84.0198 94.9802 82.4298C95.3202 79.9498 93.1802 77.4498 94.4302 75.0198C97.5702 68.9298 118.45 74.8398 103.97 61.5298C104.18 60.2898 107.78 62.0398 108.84 59.3798C109.24 58.3698 109.24 38.6798 108.84 37.6598C107.67 34.7298 103.53 37.1298 101.98 35.0198C104.85 35.2298 109.5 33.7198 109.98 37.5198V115.02L110 115.01Z" fill="#E1DED8"/>
<path d="M90.9999 34.0098C90.9999 34.6798 90.9999 35.3398 90.9999 36.0098C89.1299 34.0798 90.1099 30.4998 89.9999 28.0098C91.6999 29.2898 90.9699 32.1498 90.9999 34.0098Z" fill="#E1DED8"/>
<path d="M44.0004 35.0101C48.3904 36.4601 68.9704 31.0501 71.1204 33.5901C72.1704 34.8401 72.6704 41.4401 71.0604 42.5701C69.1704 43.9001 50.9704 43.3901 46.6804 45.1901C44.8704 45.9501 45.0004 46.7501 44.9604 48.4601C49.4104 65.7201 45.9104 91.5101 50.7704 107.75C54.6904 120.86 66.8604 118.59 77.0004 115.01C79.5904 128.8 62.8504 132.12 52.4704 131.05C41.2604 129.89 35.8904 120.75 34.0904 110.43C30.6504 90.6801 33.5304 67.4601 26.9504 48.5701C22.6904 46.0701 18.5104 47.1901 14.0104 48.0101C13.9904 47.1801 13.9304 46.3301 13.9604 45.4801C14.1504 40.1301 36.4504 23.6601 39.4404 16.9501C41.3504 14.8701 44.0104 16.2601 44.0104 18.5101V35.0101H44.0004Z" fill="#C6C8CC"/>
<path d="M90 70.0098C90.14 60.9898 90.99 52.0898 91 43.0098C93.3 51.7298 91.83 61.3998 90 70.0098Z" fill="#E1DED8"/>
<path d="M90 97.0098C90 96.3398 90 95.6798 90 95.0098L90.99 95.5198L90 97.0098Z" fill="#E1DED8"/>
<path d="M420 65.0102C415.71 79.1602 413.34 93.7202 412.97 108.55C412.78 116.26 416.84 148.16 411.58 152.1C409.92 153.34 388.15 152 387.09 149.36C391.33 132.44 395.64 114.51 392.98 97.0002C390.98 96.5302 391.07 97.6802 390.26 98.7602C388.77 100.74 376.76 119.71 376.4 120.97C374.98 125.86 380.27 129.19 378.58 134.06C377.05 136.17 362.55 134.58 359.92 133.55C355.79 131.95 351.71 115.78 350.47 111.01C349.81 108.47 349.07 94.1802 345.51 95.0002C341.95 95.8202 341.57 120.44 341.95 124.54C342.33 128.64 347.39 143.96 346.91 145.37C345.77 148.68 323.77 146.1 322.47 144.03C319.15 122.08 331.86 102.5 334.86 81.3602L333.96 58.4602C338.98 57.6102 358.67 57.7202 361.47 61.0202C365.87 66.2102 363.97 97.2102 370.51 104.99C376.41 106.3 386.77 67.6902 393.43 63.9202C399.65 60.4002 412.9 65.8502 420 64.9902V65.0102Z" fill="#1F792E"/>
<path d="M313 114.01C312.81 116.01 312.12 117.77 312 119.01C303.88 123.01 294.37 126.18 287.45 118.06C285.69 115.99 284.34 109.49 282.52 110.02C273.5 122.15 251.26 130.11 241.58 114.94C225.9 90.38 268.89 80.6301 283.6 74.0401C283.6 64.6001 285.53 39.3201 269.26 45.7701C263.02 48.2401 258.32 65.49 259 72L242.97 62.5801C252.37 37.4701 300.97 34.0401 304.89 64.6301C305.97 73.0101 302.72 109.57 307.42 113.1C309.08 114.35 311.1 114.09 313.01 114.01H313ZM283 77.0101C268.51 79.0801 250.6 93.2401 261.58 108.93C268.39 118.67 283 110.46 283 106.51V77.0101Z" fill="#332D5A"/>
<path d="M110 115.01C113.04 111.51 109.76 62.9398 110.99 54.7398C119.86 48.0798 115.45 55.7998 115.97 59.3298C116.08 60.0798 117.9 59.2498 118.11 62.4198C118.25 64.5698 116.75 69.7098 117.01 69.9998C117.15 70.1598 118.94 69.5798 119.71 70.2798C120.28 70.7998 120.1 72.6698 121.01 73.0098C123.28 73.8598 139.41 72.9798 142.23 71.7298C148.35 69.0298 145.75 62.8998 151 61.0098C149.9 66.3498 150.5 84.3398 148.52 88.0198C146.54 91.6998 145.33 80.1698 144.45 79.0498C143.84 78.2698 139.11 75.9998 138.5 75.9998H121L122.58 116.12C142.44 118.7 162.32 118.55 166 94.9998C167.4 94.1798 168.76 92.4998 169.03 95.5098C169.63 102.06 164.67 112.93 165 120H98C98.25 114.68 107.04 118.4 110 115V115.01Z" fill="#554D48"/>
<path d="M164 37.0102C164.12 37.5802 163.94 38.3602 164 39.0102C164.47 43.7902 162.8 49.5902 165 54.0102C165 54.3402 165 54.6802 165 55.0102L164 58.0102C160.06 49.9702 156.11 35.0102 144.5 35.0102H121V73.0102C120.09 72.6702 120.28 70.8002 119.7 70.2802C118.93 69.5802 117.14 70.1602 117 70.0002C116.75 69.7102 118.25 64.5802 118.1 62.4202C117.89 59.2502 116.07 60.0702 115.96 59.3302C115.45 55.8002 119.85 48.0802 110.98 54.7402C109.75 62.9402 113.02 111.52 109.99 115.01V37.5102C109.51 33.7002 104.86 35.2202 101.99 35.0102C101.16 34.9502 99.3499 35.2102 98.9899 35.0102C98.8099 31.3102 98.5099 32.3702 101.44 32.0102C107.38 31.2802 159.54 30.7602 162.04 32.4602C162.28 32.6202 163.86 36.4002 163.99 37.0102H164ZM118.99 33.0202C116.99 31.0802 114.58 35.0102 116.01 37.0102C116.34 37.4702 120.87 34.8302 118.99 33.0202ZM118.99 41.0202C117.7 39.3202 116.21 42.4002 117.01 44.0102C118.26 43.9402 119.62 41.8402 118.99 41.0202ZM118.77 48.4702C118.77 47.7702 118.2 47.2002 117.5 47.2002C116.8 47.2002 116.23 47.7702 116.23 48.4702C116.23 49.1702 116.8 49.7402 117.5 49.7402C118.2 49.7402 118.77 49.1702 118.77 48.4702Z" fill="#58524D"/>
<path d="M164 37.0098C163.87 36.3998 162.29 32.6198 162.05 32.4598C159.54 30.7498 107.39 31.2698 101.45 32.0098C98.5198 32.3698 98.8198 31.3098 98.9998 35.0098C97.2398 34.0198 98.1598 32.5498 97.9998 31.0198C106.74 32.4998 159.42 28.8798 163.07 31.4498C164.48 32.4498 164 35.4298 164.01 37.0098H164Z" fill="#E1DED8"/>
<path d="M165 54.0098C162.8 49.5898 164.47 43.7898 164 39.0098C165.83 43.3398 165.03 49.3098 165 54.0098Z" fill="#E1DED8"/>
<path d="M164 58.0098L165 55.0098C165 55.2198 167.35 56.8598 164 58.0098Z" fill="#E1DED8"/>
<path d="M516 86.0102C515.88 79.4002 513.07 80.1502 513.02 79.5202C513 79.2702 516.25 76.3602 515 75.0202C514.69 74.6902 512.37 75.7002 511.93 74.4702C511.35 72.8102 512.77 67.3202 511.87 66.1402C511.69 65.9002 506.3 64.7802 506.01 65.0102C505.81 65.1702 505.93 68.8102 504.76 69.7902C504.43 70.0702 495.78 73.4702 497.01 70.5202L498.51 67.0102C497.91 69.2302 492.09 71.1702 491.94 71.6402C490.83 75.0602 491.93 91.0302 491 97.0102C490.45 100.55 489.71 101.43 489 104.01C489 102.68 489 101.34 489 100.01C489 99.6802 489.04 99.3302 489 99.0102C491.42 88.0402 491.08 77.0802 490 66.0102C488.92 54.9402 487.77 36.5102 472.47 37.2002C460.5 37.7302 458.05 54.0502 457 63.0102C455.69 74.1902 455.89 85.5702 456 97.0102C455.24 92.1302 455.73 82.2303 454.83 79.6803C454.66 79.2103 448.97 72.0902 448.48 72.0202C445.93 71.6402 446.39 75.4202 445.82 75.8302C445.02 76.4002 442.64 75.7502 441.06 76.5702C430.88 81.8302 429.46 81.3502 431.99 94.0202C413.67 22.4702 522.31 13.5102 515.99 86.0202L516 86.0102Z" fill="#534B40"/>
<path d="M456 97.0102C456.05 97.3402 455.95 97.6802 456 98.0102C449.86 100.93 448.58 106.2 457 104.01C463.66 129.62 482.04 129.47 489 104.01C489.71 101.43 490.45 100.55 491 97.0102C493.81 96.6602 500.78 99.2002 502.29 98.8602C504.19 98.4302 510.57 90.7902 515 92.0102C513.34 99.4602 510.74 104.24 506 110.01C501.03 105.96 498.33 112.85 503 113.01C480.67 133.76 438.21 125.12 432 94.0102C429.47 81.3402 430.89 81.8202 441.07 76.5602C442.65 75.7502 445.03 76.4002 445.83 75.8202C446.4 75.4102 445.94 71.6302 448.49 72.0102C448.98 72.0802 454.68 79.2002 454.84 79.6702C455.74 82.2302 455.25 92.1202 456.01 97.0002L456 97.0102Z" fill="#3F362D"/>
<path d="M491 97.0098C491.93 91.0298 490.83 75.0698 491.94 71.6398C492.09 71.1798 497.9 69.2298 498.51 67.0098L497.01 70.5198C495.78 73.4698 504.43 70.0698 504.76 69.7898C505.92 68.8098 505.81 65.1698 506.01 65.0098C506.3 64.7698 511.69 65.8998 511.87 66.1398C512.77 67.3198 511.34 72.8098 511.93 74.4698C512.36 75.6998 514.69 74.6898 515 75.0198C516.25 76.3698 513 79.2798 513.02 79.5198C513.07 80.1598 515.88 79.3998 516 86.0098C516.06 89.1398 515.54 89.5898 515 92.0098C510.58 90.7898 504.19 98.4298 502.29 98.8598C500.78 99.1998 493.81 96.6598 491 97.0098Z" fill="#3C3229"/>
<path d="M506 110.01C504.79 111.48 504.26 111.84 503 113.01C498.33 112.85 501.03 105.96 506 110.01Z" fill="#3C3229"/>
<path d="M283 77.0098V106.51C283 110.47 268.39 118.68 261.58 108.93C250.61 93.2398 268.51 79.0798 283 77.0098Z" fill="#EBB8B8"/>
<path d="M118.99 33.0202C120.87 34.8402 116.33 37.4702 116.01 37.0102C114.59 35.0102 116.99 31.0802 118.99 33.0202Z" fill="#554D48"/>
<path d="M118.99 41.0201C119.61 41.8401 118.25 43.9501 117.01 44.0101C116.21 42.4001 117.7 39.3201 118.99 41.0201Z" fill="#554D48"/>
<path d="M117.5 49.7402C118.202 49.7402 118.77 49.1716 118.77 48.4702C118.77 47.7688 118.202 47.2002 117.5 47.2002C116.799 47.2002 116.23 47.7688 116.23 48.4702C116.23 49.1716 116.799 49.7402 117.5 49.7402Z" fill="#554D48"/>
<path d="M457 63.0098L458 76.0198C462.96 73.9898 468.23 76.6398 472.52 76.0998C475.78 75.6898 476.28 73.5098 477.69 73.1698C479.17 72.8198 480.91 74.2198 482.32 73.8698C482.85 73.7398 489.36 67.4698 490 66.0098C491.08 77.0798 491.42 88.0398 489 99.0098C488.88 98.0298 489.1 96.9898 489 96.0098C485.85 96.8798 466.59 99.0398 465.99 100.51C465.67 101.29 465.63 102.4 466.7 103C467.27 103.32 478.76 106.01 479.41 106C484.38 105.91 485.03 100.91 489 100.02C489 101.35 489 102.69 489 104.02C482.04 129.48 463.66 129.63 457 104.02C456.74 103.02 456.23 99.4998 456 98.0198C455.95 97.6898 456.05 97.3498 456 97.0198C455.89 85.5798 455.69 74.1998 457 63.0198V63.0098Z" fill="#DFDFD3"/>
<path d="M490 66.0102C489.36 67.4702 482.86 73.7402 482.32 73.8702C480.92 74.2202 479.18 72.8202 477.69 73.1702C476.2 73.5202 475.78 75.6902 472.52 76.1002C468.23 76.6402 462.95 73.9902 458 76.0202L457 63.0102C458.05 54.0402 460.49 37.7302 472.47 37.2002C487.78 36.5202 488.95 55.1502 490 66.0102Z" fill="#E0DFD4"/>
<path d="M489 100.01C485.02 100.9 484.38 105.91 479.41 105.99C478.76 106 467.27 103.31 466.7 102.99C465.62 102.39 465.67 101.28 465.99 100.5C466.6 99.03 485.86 96.86 489 96C489.1 96.98 488.88 98.02 489 99C489.04 99.32 489 99.67 489 100V100.01Z" fill="#E0DFD4"/>
<path d="M457 104.01C448.58 106.2 449.86 100.93 456 98.0098C456.23 99.4898 456.74 103.01 457 104.01Z" fill="#534B40"/>
</svg>
